<?xml version="1.0" encoding="utf-8"?>
<!-- Generator: Adobe Illustrator 24.0.3, SVG Export Plug-In . SVG Version: 6.00 Build 0)  -->
<svg version="1.1" id="图层_1" xmlns="http://www.w3.org/2000/svg" xmlns:xlink="http://www.w3.org/1999/xlink" x="0px" y="0px"
	 viewBox="0 0 850.4 850.4" style="enable-background:new 0 0 850.4 850.4;" xml:space="preserve">
<style type="text/css">
	.st0{fill:#1240E5;}
	.st1{fill:#1240E5;}
</style>
<path class="st0" d="M829.9,294.8L829.9,294.8c-18.9-58.7-49.1-111.1-89.7-155.8C606.4-8.6,390.2-42.5,214.5,56.6
	C64.2,141.4-20.9,319.6,7.6,489.8C19.7,562.2,47.8,627.2,91,683c10.9,14,31.2,16.5,45.3,5.6c14-10.9,16.6-31.2,5.7-45.3
	C104.8,595.3,81.7,541.6,71.2,479c-24.1-143.8,47.9-294.4,175-366.2C395.3,28.5,578.8,57,692.4,182.3c34.4,37.9,60,82.4,76.1,132.2
	c32,99.4,18.7,207.9-36.5,297.7C677,701.8,586.4,762.5,483.5,778.6c-13.3,2.2-34.2,4.8-58,5.1c-56-0.6-108.9-13.2-157.2-37.4
	c-19.3-9.6-37.6-8.6-56,3c-41.7,26.6-84.1,37-129.5,31.8c-8.4-1.2-16.7,1-23.5,6.2c-6.9,5.3-11.4,13.2-12.5,21.9
	C44.7,826.9,57.3,843,75,845.2c58.6,7.5,116.2-6.4,166.7-40c56.7,27.9,118.3,42.3,183.2,43h3.5c24.2,0,46.5-3,65.2-5.9
	c121.4-19,228.4-90.6,293.5-196.4C852.2,540.1,867.9,412.1,829.9,294.8z"/>
<path class="st1" d="M202.3,424.4c0,30.9,25.1,56,56,56s56-25.1,56-56s-25.1-56-56-56S202.3,393.5,202.3,424.4L202.3,424.4z"/>
<path class="st1" d="M370.3,424.4c0,30.9,25.1,56,56,56s56-25.1,56-56s-25.1-56-56-56C395.3,368.4,370.3,393.5,370.3,424.4
	L370.3,424.4z"/>
<path class="st1" d="M538.2,424.4c0,30.9,25.1,56,56,56s56-25.1,56-56s-25.1-56-56-56S538.2,393.5,538.2,424.4L538.2,424.4z"/>
</svg>
