<?xml version="1.0" encoding="utf-8"?>
<!-- Generator: Adobe Illustrator 24.0.3, SVG Export Plug-In . SVG Version: 6.00 Build 0)  -->
<svg version="1.1" id="图层_1" xmlns="http://www.w3.org/2000/svg" xmlns:xlink="http://www.w3.org/1999/xlink" x="0px" y="0px"
	 viewBox="0 0 850.4 850.4" style="enable-background:new 0 0 850.4 850.4;" xml:space="preserve">
<style type="text/css">
	.st0{fill:#1240E5;}
</style>
<g>
	<path class="st0" d="M322.5,463.3H617c14.3,0,26.2-11.9,26.2-26.2c0-14.3-11.9-26.2-26.2-26.2H322.5c-14.3,0-26.2,11.9-26.2,26.2
		C296.3,451.4,308.1,463.3,322.5,463.3L322.5,463.3z M322.5,316.2h338.7c14.3,0,26.2-11.9,26.2-26.2c0-14.3-11.9-26.2-26.2-26.2
		H322.5c-14.3,0-26.2,11.9-26.2,26.2C296.3,304.4,308.1,316.2,322.5,316.2L322.5,316.2z M554.7,584.5c0-14.3-11.9-26.2-26.2-26.2
		h-206c-14.3,0-26.2,11.9-26.2,26.2c0,14.3,11.9,26.2,26.2,26.2h206C542.8,610.7,554.7,598.9,554.7,584.5L554.7,584.5z M554.7,584.5
		"/>
	<path class="st0" d="M760.3,101.2h-65.1V53.3c0-18.4-15.2-33.6-33.6-33.6H107.4c-18.4,0-33.6,15.2-33.6,33.6V716c0,18.4,15.2,33.6,33.6,33.6
		h65.1v47.5c0,18.4,15.2,33.6,33.6,33.6h296.1c19.3,0,86.8-2,151.6-27.9c38.5-15.2,69.6-36.5,92.6-62.7
		c28.7-32.8,44.6-72.9,47.5-120V134.4C793.9,116,778.8,101.2,760.3,101.2L760.3,101.2z M643.2,101.2h-437
		c-18.4,0-33.6,15.2-33.6,33.6v562.8h-46.3V72.1h516.5v29.1H643.2z M225,153.6h516.5v464.5c-4.1,63.9-40.1,109.8-106.9,136.4
		c-56.1,22.5-115.5,24.2-132.3,24.2H225V153.6z M225,153.6"/>
</g>
</svg>
