<?xml version="1.0" encoding="utf-8"?>
<!-- Generator: Adobe Illustrator 24.0.3, SVG Export Plug-In . SVG Version: 6.00 Build 0)  -->
<svg version="1.1" id="图层_1" xmlns="http://www.w3.org/2000/svg" xmlns:xlink="http://www.w3.org/1999/xlink" x="0px" y="0px"
	 viewBox="0 0 850.4 850.4" style="enable-background:new 0 0 850.4 850.4;" xml:space="preserve">
<style type="text/css">
	.st0{clip-path:url(#SVGID_2_);fill:#1240E5;}
</style>
<g>
	<g>
		<defs>
			<rect id="SVGID_1_" x="38.4" y="77" width="773.7" height="697"/>
		</defs>
		<clipPath id="SVGID_2_">
			<use xlink:href="#SVGID_1_"  style="overflow:visible;"/>
		</clipPath>
		<path class="st0" d="M811.3,296.2c-0.2-88.6-53.7-168.4-135.6-202.3c-81.9-33.9-176.1-15.1-238.8,47.5l-12.1,12.1l-12.1-12.1
			c-85.7-85.5-224.5-85.5-310.2,0c-41.1,41-64.2,96.7-64.2,154.8c0,58.1,23.1,113.8,64.2,154.8l20.1,20
			c-17.8,46.8-6.5,99.6,28.9,135l130.1,129.8c37.7,37.6,94.7,47.7,143,25.5c48.5,22.3,105.7,12.1,143.5-25.5L698.1,606
			c35.4-35.4,46.7-88.2,28.8-135L747,451C788.3,410.1,811.4,354.3,811.3,296.2L811.3,296.2z M591.9,133.3
			c66-0.2,125.5,39.5,150.8,100.4c25.3,60.9,11.3,131.1-35.4,177.6l-12.2,12.1l-140.5-136c-1.4-1.3-2.9-2.5-4.5-3.5
			c-0.2-0.2-0.4-0.4-0.6-0.6c-12-9.8-29.7-8-39.5,3.9c-40.5,49.4-79.9,75.3-117.2,76.9c-31.3,1.5-56.3-15.3-71.1-28.7L476.5,181
			C507.1,150.4,548.6,133.2,591.9,133.3L591.9,133.3z M321.2,696.2L191.1,566.4c-13.3-13.3-20.8-31.4-20.8-50.3
			c0-18.9,7.5-36.9,20.8-50.3c23.1-22.9,60.3-23.1,83.6-0.3l148,145.4c23.3,22.9,23.6,60.4,0.7,83.7l-1.6,1.6
			C394.1,724,349,724,321.2,696.2L321.2,696.2z M658.4,566.4L528.3,696.2c-13.6,13.5-32,21-51.1,20.8c30.6-46,24.3-107.3-15.1-146
			l-148-145.4c-44.2-43.1-114.4-44-159.7-2l-12.2-12.2c-63.6-63.7-63.5-167,0.2-230.6s167-63.5,230.6,0.2l12.1,12.1L275.6,302.3
			c-18.2,18.2-18.4,47.6-0.5,66.2c19.9,20.4,62.1,54.2,120.2,51.7c47-2,93.5-27.2,138.5-74.9l124.6,120.6
			c13.4,13.3,20.9,31.4,20.9,50.3C679.2,535,671.7,553.1,658.4,566.4L658.4,566.4z M658.4,566.4"/>
	</g>
</g>
</svg>
