<?xml version="1.0" encoding="utf-8"?>
<!-- Generator: Adobe Illustrator 24.0.3, SVG Export Plug-In . SVG Version: 6.00 Build 0)  -->
<svg version="1.1" id="图层_1" xmlns="http://www.w3.org/2000/svg" xmlns:xlink="http://www.w3.org/1999/xlink" x="0px" y="0px"
	 viewBox="0 0 850.4 850.4" style="enable-background:new 0 0 850.4 850.4;" xml:space="preserve">
<style type="text/css">
	.st0{clip-path:url(#SVGID_2_);fill:#fff;}
	.st1{clip-path:url(#SVGID_4_);fill:#fff;}
	.st2{clip-path:url(#SVGID_6_);fill:#fff;}
</style>
<g>
	<g>
		<defs>
			<rect id="SVGID_5_" x="12.1" y="32.1" width="826.2" height="788"/>
		</defs>
		<clipPath id="SVGID_2_">
			<use xlink:href="#SVGID_5_"  style="overflow:visible;"/>
		</clipPath>
		<path class="st0" d="M490.2,676.1l110.5-368.9h181.7c0,0.5,0,1-0.5,1.5L490.2,676.1z M69.6,307.2h168.2l114,361.4L69.6,307.2z
			 M165.1,120.6l58.7,131.9H89.5L165.1,120.6z M543.4,307.2l-121,404.2L295,307.2H543.4z M265.7,213.7L209.9,87.7h145.9L265.7,213.7
			z M425.5,87.7l118,164.8H304.5l118-164.8H425.5z M492.7,87.7h145.9l-55.7,125.9L492.7,87.7z M759,252.5H624.6l59.2-133.4
			L759,252.5z M829.7,267.4l-111-197.1c-12.4-21.9-39.3-37.8-64.2-37.8H195c-24.9,0-51.8,15.9-64.2,37.3L20.3,263.9
			c-12.9,22.9-10.5,55.3,5.5,76.2l359.4,460c3,4,7,6.5,10.9,9l1,3.5l2.5-1c7.5,4.5,15.4,7.5,23.9,7.5c8.5,0,16.4-3,23.9-7.5l2,0.5
			l1-3c4-3,8-5,11.5-9l362.4-456.5C840.1,322.7,842.6,290.3,829.7,267.4L829.7,267.4z M829.7,267.4"/>
	</g>
</g>
</svg>
