<?xml version="1.0" encoding="utf-8"?>
<!-- Generator: Adobe Illustrator 24.3.0, SVG Export Plug-In . SVG Version: 6.00 Build 0)  -->
<svg version="1.1" id="图层_1" xmlns="http://www.w3.org/2000/svg" xmlns:xlink="http://www.w3.org/1999/xlink" x="0px" y="0px"
	 viewBox="0 0 277.2 105.7" style="enable-background:new 0 0 277.2 105.7;" xml:space="preserve">
<style type="text/css">
	.st0{fill:#1240E5;}
</style>
<path class="st0" d="M2.7,55.5h265.2l-45.6,45.6c-1.1,1.1-1,2.7,0,3.8c1.1,1.1,2.7,1,3.8,0L276,55c0.7-0.5,1.2-1.3,1.2-2.2
	c0-0.7-0.3-1.3-0.7-1.7l0,0L226.1,0.8c-1-1-2.7-1-3.8,0c-1.1,1.1-1,2.7,0,3.8L268,50.3H2.7C1.2,50.3,0,51.5,0,53
	C0,54.3,1.2,55.5,2.7,55.5L2.7,55.5z"/>
</svg>
