<?xml version="1.0" encoding="utf-8"?>
<!-- Generator: Adobe Illustrator 24.0.3, SVG Export Plug-In . SVG Version: 6.00 Build 0)  -->
<svg version="1.1" id="图层_1" xmlns="http://www.w3.org/2000/svg" xmlns:xlink="http://www.w3.org/1999/xlink" x="0px" y="0px"
	 viewBox="0 0 300 300" style="enable-background:new 0 0 300 300;" xml:space="preserve">
<style type="text/css">
	.st0{fill:#ffffff;}
</style>
<path class="st0" d="M287.2,299.2c-2.9,0-5.9-1.1-8.1-3.4l-275-275C-0.4,16.3-0.4,9,4.1,4.5c4.5-4.5,11.7-4.5,16.2,0l275,275
	c4.5,4.5,4.5,11.7,0,16.2C293.1,298.1,290.1,299.2,287.2,299.2L287.2,299.2z M287.2,299.2"/>
<path class="st0" d="M12.2,299.2c-2.9,0-5.9-1.1-8.1-3.4c-4.5-4.5-4.5-11.7,0-16.2l275-275c4.5-4.5,11.7-4.5,16.2,0
	c4.5,4.5,4.5,11.7,0,16.2l-275,275C18,298.1,15.1,299.2,12.2,299.2L12.2,299.2z M12.2,299.2"/>
</svg>
