<?xml version="1.0" encoding="utf-8"?>
<!-- Generator: Adobe Illustrator 24.0.3, SVG Export Plug-In . SVG Version: 6.00 Build 0)  -->
<svg version="1.1" id="图层_1" xmlns="http://www.w3.org/2000/svg" xmlns:xlink="http://www.w3.org/1999/xlink" x="0px" y="0px"
	 viewBox="0 0 271.9 92.1" style="enable-background:new 0 0 271.9 92.1;" xml:space="preserve">
<style type="text/css">
	.st0{fill:#1C3BB8;}
	.st1{fill:#1D63ED;}
	.st2{fill:#3180FF;}
	.st3{fill:#1A54E5;}
	.st4{fill:#226CFF;}
	.st5{fill:#FFFFFF;}
</style>
<g>
	<polygon class="st0" points="97.1,79.7 75.5,79.7 75.5,58.1 97.1,58.1 	"/>
	<polygon class="st1" points="75.5,79.7 54,79.7 54,58.1 75.5,58.1 	"/>
	<polygon class="st2" points="54,79.7 32.4,79.7 32.4,58.1 54,58.1 	"/>
	<rect x="75.5" y="36.6" class="st1" width="21.6" height="21.6"/>
	<polygon class="st2" points="97.1,36.6 75.6,36.6 75.5,15 97.1,15 	"/>
	<polygon class="st2" points="54,51.1 32.4,51.1 32.4,29.6 53.9,29.6 	"/>
	<polygon class="st0" points="42,22.3 32.1,22.3 32.1,12.4 42,12.4 	"/>
	<polygon class="st3" points="21.9,18.3 16,18.3 16,12.4 21.9,12.4 	"/>
	<rect x="19.5" y="31.5" class="st4" width="3.4" height="3.4"/>
	<g>
		<g>
			<path class="st5" d="M114.6,38.5l-0.6-1.8c3.7-4.1,6.4-8.8,8.1-13.9l1.6,0.7c-0.8,2.5-1.9,4.8-3.1,7v22.5h-1.8V33.4
				C117.5,35.2,116.1,36.9,114.6,38.5z M130.4,31c0-0.8,0.1-1.5,0.1-2.3v-5.9h1.8v5.9l-0.1,2.3h11.4v1.7h-7.2v16.9
				c0,0.7,0.4,1.1,1.2,1.1h3.1c0.4,0,0.8-0.2,1-0.5c0.3-0.6,0.6-2.5,0.7-5.7l1.6,0.5c-0.2,3.5-0.5,5.6-1,6.4c-0.5,0.6-1.1,0.9-1.9,1
				h-4.1c-1.6,0-2.4-0.8-2.4-2.5V32.8h-2.6c-0.7,9-3.5,15.7-8.4,20.2l-1.4-1.2c4.7-4.2,7.4-10.5,8-19h-7V31H130.4z M141.9,27.9
				l-1.2,1.2c-1.3-1.4-3-2.9-5.2-4.5l1.2-1.1C138.8,25,140.5,26.4,141.9,27.9z"/>
			<path class="st5" d="M156.8,27.4v-4.7h1.7v4.7h3.8v1.6h-3.8v5.3h4.5V36h-3.6v5.2h3.6v1.6h-3.6v6.6c0.3,0.2,0.7,0.3,1,0.5
				c2,0.7,6.5,1.1,13.5,1.1c3.4,0,5.9,0,7.6-0.1l-0.3,1.8h-6.9c-8,0-12.9-0.5-14.9-1.4c-1.9-0.9-3.6-2.5-5-4.9
				c-0.4,2.5-1,4.8-1.8,6.9l-1.3-1.2c1.4-4,2.1-8.5,2.3-13.6l1.6,0.2c-0.1,1.9-0.2,3.8-0.4,5.5c0.9,1.7,1.9,3.1,3.1,4.1V36h-5.6
				v-1.7h4.7v-5.3h-4.2v-1.6H156.8z M173.7,43.3c-0.6,0.3-1.2,0.5-1.8,0.7v5.4h-1.6v-4.8c-2.5,0.9-5.2,1.7-7.9,2.4l-0.4-1.6l2.6-0.6
				V25.7h-1.9v-1.6h10.9v1.6h-1.6v16.8c0.6-0.3,1.2-0.5,1.8-0.8V43.3z M170.3,30.8v-5.1h-4.2v5.1H170.3z M170.3,36.9v-4.7h-4.2v4.7
				H170.3z M170.3,38.5h-4.2v6c1.4-0.4,2.8-0.9,4.2-1.3V38.5z M181.1,26.5v1.3c-0.2,4.6-0.9,8.6-2.3,12c1.1,2.5,2,5.2,2.9,7.9
				l-1.4,0.6c-0.8-2.3-1.5-4.4-2.3-6.5c-1.2,2.5-2.7,4.8-4.5,6.7l-1.1-1.2c2-2.1,3.6-4.7,4.8-7.6c-1.3-3.1-2.6-5.9-3.9-8.5l1.4-0.4
				c1.1,2.2,2.2,4.5,3.2,6.8c0.9-2.9,1.4-6.1,1.6-9.5h-6v-1.6H181.1z"/>
			<path class="st5" d="M202.3,34.7c0.5-2.5,0.8-5.2,1-8.3h-12.3v-1.7H217v1.7h-11.9c-0.2,3.1-0.5,5.9-0.9,8.3H218v1.8h-12.6
				c2.3,6.6,6.8,11.7,13.5,15.2l-1.1,1.5c-7.1-3.8-11.8-9.3-14.1-16.6c-0.6,2.6-1.4,4.8-2.4,6.5c-2.3,3.9-6,7.3-11.3,10.1l-1.2-1.5
				c5-2.6,8.6-5.7,10.8-9.2c0.9-1.6,1.7-3.6,2.3-6H190v-1.8H202.3z"/>
			<path class="st5" d="M255.9,24.6v1.8h-14.7V32c4.2,2.2,8.5,4.7,12.8,7.5L253,41c-4.6-3.1-8.5-5.5-11.7-7.2v19.3h-1.8V26.4h-12.9
				v-1.8H255.9z"/>
		</g>
		<g>
			<path class="st5" d="M123.9,62.5c1,1.1,1.4,2.6,1.4,4.4c0,1.8-0.5,3.3-1.4,4.4l-0.2,0.2c0.5,0.6,0.9,1.3,1.4,1.9l-0.7,0.6
				c-0.5-0.7-0.9-1.3-1.4-1.9c-0.9,0.6-2,1-3.3,1c-1.8,0-3.2-0.6-4.2-1.8c-1-1.1-1.4-2.6-1.4-4.4c0-1.8,0.5-3.2,1.4-4.4
				c1-1.2,2.4-1.8,4.2-1.8C121.5,60.7,122.9,61.3,123.9,62.5z M116.4,63.1c-0.8,1-1.2,2.2-1.2,3.7c0,1.5,0.4,2.8,1.2,3.7
				c0.8,1,2,1.5,3.4,1.5c1.1,0,2-0.3,2.7-0.8c-0.7-0.9-1.4-1.7-2.1-2.5l0.6-0.6c0.7,0.8,1.5,1.6,2.2,2.5c0,0,0,0,0,0
				c0.8-0.9,1.2-2.2,1.2-3.8c0-1.6-0.4-2.8-1.2-3.8c-0.8-1-2-1.5-3.4-1.5C118.3,61.6,117.2,62.1,116.4,63.1z"/>
			<path class="st5" d="M132.8,60.9v7.3c0,1.3,0.3,2.2,0.8,2.9c0.6,0.7,1.5,1,2.8,1c1.3,0,2.2-0.3,2.8-1c0.5-0.6,0.8-1.6,0.8-2.9
				v-7.3h1v7.3c0,1.5-0.4,2.7-1.1,3.5c-0.8,0.8-1.9,1.3-3.5,1.3c-1.6,0-2.7-0.4-3.5-1.3c-0.8-0.8-1.1-2-1.1-3.6v-7.3H132.8z"/>
			<path class="st5" d="M155,61.6c0.8,0.6,1.2,1.6,1.3,2.8h-1c-0.1-0.9-0.5-1.6-1-2.1c-0.6-0.5-1.4-0.7-2.4-0.7
				c-1,0-1.7,0.2-2.3,0.5c-0.6,0.4-0.9,0.9-0.9,1.7c0,0.7,0.4,1.2,1.1,1.6c0.3,0.2,1.1,0.4,2.3,0.8c1.5,0.4,2.5,0.8,3.1,1.1
				c1,0.6,1.5,1.4,1.5,2.5c0,1-0.4,1.8-1.3,2.4c-0.8,0.6-1.9,0.8-3.2,0.8c-1.4,0-2.4-0.3-3.2-0.9c-0.9-0.7-1.4-1.8-1.5-3.2h1
				c0.1,1.1,0.5,1.9,1.2,2.5c0.6,0.5,1.4,0.7,2.5,0.7c1,0,1.9-0.2,2.5-0.6c0.6-0.4,1-1,1-1.7c0-0.8-0.4-1.4-1.2-1.9
				c-0.4-0.2-1.3-0.5-2.6-0.9c-1.4-0.4-2.3-0.7-2.7-0.9c-0.9-0.5-1.4-1.3-1.4-2.2c0-1,0.4-1.8,1.3-2.4c0.8-0.5,1.8-0.8,3-0.8
				C153.2,60.7,154.2,61,155,61.6z"/>
			<path class="st5" d="M171.2,60.9v0.9h-7.3v4.4h6.9v0.9h-6.9v4.8h7.6v0.9h-8.6V60.9H171.2z"/>
			<path class="st5" d="M179.1,60.9v11.9h-1V60.9H179.1z"/>
			<path class="st5" d="M195,60.9v0.9h-4.4v11h-1v-11h-4.4v-0.9H195z"/>
			<path class="st5" d="M202.5,71.4c0.2,0.2,0.3,0.4,0.3,0.6c0,0.2-0.1,0.4-0.3,0.6c-0.2,0.1-0.4,0.2-0.6,0.2
				c-0.2,0-0.4-0.1-0.6-0.2c-0.2-0.2-0.3-0.4-0.3-0.6c0-0.2,0.1-0.4,0.3-0.6c0.1-0.2,0.3-0.2,0.6-0.2
				C202.1,71.1,202.3,71.2,202.5,71.4z"/>
			<path class="st5" d="M218.1,61.7c0.9,0.7,1.5,1.6,1.6,2.8h-1c-0.1-0.9-0.6-1.6-1.3-2.1c-0.7-0.5-1.6-0.7-2.5-0.7
				c-1.5,0-2.6,0.5-3.4,1.5c-0.8,1-1.2,2.2-1.2,3.7c0,1.5,0.4,2.8,1.1,3.7c0.8,1,1.9,1.5,3.3,1.5c1,0,1.9-0.3,2.6-0.8
				c0.8-0.6,1.3-1.4,1.5-2.5h1c-0.2,1.4-0.9,2.4-1.9,3.2c-0.9,0.7-2,1.1-3.2,1.1c-1.8,0-3.2-0.6-4.2-1.8c-0.9-1.1-1.4-2.5-1.4-4.3
				c0-1.7,0.5-3.2,1.4-4.3c1-1.3,2.4-1.9,4.2-1.9C216.1,60.7,217.2,61,218.1,61.7z"/>
			<path class="st5" d="M235.6,62.5c1,1.1,1.4,2.6,1.4,4.4c0,1.8-0.5,3.3-1.4,4.4c-1,1.2-2.4,1.8-4.2,1.8c-1.8,0-3.2-0.6-4.2-1.8
				c-1-1.1-1.4-2.6-1.4-4.4c0-1.8,0.5-3.2,1.4-4.4c1-1.2,2.4-1.8,4.2-1.8C233.2,60.7,234.6,61.3,235.6,62.5z M228,63.1
				c-0.8,1-1.2,2.2-1.2,3.7c0,1.5,0.4,2.8,1.2,3.7c0.8,1,2,1.5,3.4,1.5s2.6-0.5,3.4-1.5c0.8-0.9,1.2-2.2,1.2-3.8
				c0-1.6-0.4-2.8-1.2-3.8c-0.8-1-2-1.5-3.4-1.5C230,61.6,228.9,62.1,228,63.1z"/>
			<path class="st5" d="M244.8,60.9l4.7,10.6h0l4.6-10.6h1.3v11.9h-1V62.6h-0.1L250,72.8h-1l-4.4-10.2h-0.1v10.2h-1V60.9H244.8z"/>
		</g>
	</g>
</g>
</svg>
