<?xml version="1.0" encoding="utf-8"?>
<!-- Generator: Adobe Illustrator 24.0.3, SVG Export Plug-In . SVG Version: 6.00 Build 0)  -->
<svg version="1.1" id="Calculator" xmlns="http://www.w3.org/2000/svg" xmlns:xlink="http://www.w3.org/1999/xlink" x="0px" y="0px"
	 viewBox="0 0 300 300" style="enable-background:new 0 0 300 300;" xml:space="preserve">
<style type="text/css">
	.st0{fill:#A5B2DB;}
	.st1{fill:#E7F3F7;}
	.st2{fill:#E6EEFF;}
	.st3{fill:#D0DBF7;}
	.st4{fill:#1759FF;}
	.st5{fill:#376CFB;}
	.st6{fill:#E6ECFF;}
	.st7{fill:url(#SVGID_1_);}
	.st8{fill:#4294FF;}
	.st9{fill:url(#SVGID_2_);}
	.st10{fill:url(#SVGID_3_);}
	.st11{fill:url(#SVGID_4_);}
	.st12{fill:url(#SVGID_5_);}
	.st13{fill:url(#SVGID_6_);}
	.st14{fill:url(#SVGID_7_);}
	.st15{fill:url(#SVGID_8_);}
	.st16{fill:url(#SVGID_9_);}
	.st17{fill:url(#SVGID_10_);}
	.st18{fill:url(#SVGID_11_);}
	.st19{fill:url(#SVGID_12_);}
	.st20{fill:url(#SVGID_13_);}
	.st21{fill:url(#SVGID_14_);}
	.st22{fill:#FFFFFF;}
	.st23{clip-path:url(#SVGID_16_);fill:#2454FF;}
	.st24{fill:#2946ED;}
	.st25{fill:url(#SVGID_17_);}
	.st26{fill:#AEC9FF;}
	.st27{clip-path:url(#SVGID_19_);fill:#2454FF;}
	.st28{fill:#BAC7E5;}
	.st29{fill:url(#SVGID_20_);}
	.st30{fill:url(#SVGID_21_);}
	.st31{fill:url(#SVGID_22_);}
	.st32{fill:url(#SVGID_23_);}
	.st33{fill:url(#SVGID_24_);}
	.st34{fill:url(#SVGID_25_);}
	.st35{fill:url(#SVGID_26_);}
	.st36{fill:url(#SVGID_27_);}
	.st37{fill:url(#SVGID_28_);}
	.st38{fill:url(#SVGID_29_);}
	.st39{fill:url(#SVGID_30_);}
	.st40{fill:url(#SVGID_31_);}
	.st41{fill:url(#SVGID_32_);}
	.st42{fill:url(#SVGID_33_);}
	.st43{fill:url(#SVGID_34_);}
</style>
<path class="st8" d="M218.3,6.1H9.2c-2.5,0-4.5,2-4.5,4.5v118.2c0,2.5,2,4.5,4.5,4.5h209.1c2.5,0,4.5-2,4.5-4.5V10.7
	C222.8,8.2,220.8,6.1,218.3,6.1z"/>
<path class="st5" d="M200.1,47c-10,0-18.2-8.2-18.2-18.2c0-2.5-2-4.5-4.5-4.5H50.1c-2.5,0-4.5,2-4.5,4.5c0,10-8.2,18.2-18.2,18.2
	c-2.5,0-4.5,2-4.5,4.5V88c0,2.5,2,4.5,4.5,4.5c10,0,18.2,8.2,18.2,18.2c0,2.5,2,4.5,4.5,4.5h127.3c2.5,0,4.5-2,4.5-4.5
	c0-10,8.2-18.2,18.2-18.2c2.5,0,4.5-2,4.5-4.5V51.6C204.7,49.1,202.6,47,200.1,47z"/>
<path class="st6" d="M291,169.8H81.9c-2.5,0-4.5,2-4.5,4.5v118.2c0,2.5,2,4.5,4.5,4.5H291c2.5,0,4.5-2,4.5-4.5V174.3
	C295.6,171.8,293.6,169.8,291,169.8z"/>
<linearGradient id="SVGID_1_" gradientUnits="userSpaceOnUse" x1="77.363" y1="201.6219" x2="295.5858" y2="201.6219">
	<stop  offset="0" style="stop-color:#154BFF"/>
	<stop  offset="1" style="stop-color:#5594FF"/>
</linearGradient>
<rect x="77.4" y="188" class="st7" width="218.2" height="27.3"/>
<linearGradient id="SVGID_2_" gradientUnits="userSpaceOnUse" x1="250.1228" y1="265.2702" x2="277.4006" y2="265.2702">
	<stop  offset="0" style="stop-color:#154BFF"/>
	<stop  offset="1" style="stop-color:#5594FF"/>
</linearGradient>
<path class="st9" d="M272.9,251.6h-18.2c-2.5,0-4.5,2-4.5,4.5v18.2c0,2.5,2,4.5,4.5,4.5h18.2c2.5,0,4.5-2,4.5-4.5v-18.2
	C277.4,253.7,275.4,251.6,272.9,251.6z"/>
<linearGradient id="SVGID_3_" gradientUnits="userSpaceOnUse" x1="218.2986" y1="265.2702" x2="245.5764" y2="265.2702">
	<stop  offset="0" style="stop-color:#154BFF"/>
	<stop  offset="1" style="stop-color:#5594FF"/>
</linearGradient>
<path class="st10" d="M241,251.6h-18.2c-2.5,0-4.5,2-4.5,4.5v18.2c0,2.5,2,4.5,4.5,4.5H241c2.5,0,4.5-2,4.5-4.5v-18.2
	C245.6,253.7,243.5,251.6,241,251.6z"/>
<g>
	<linearGradient id="SVGID_4_" gradientUnits="userSpaceOnUse" x1="95.5482" y1="256.1776" x2="181.9281" y2="256.1776">
		<stop  offset="0" style="stop-color:#154BFF"/>
		<stop  offset="1" style="stop-color:#5594FF"/>
	</linearGradient>
	<path class="st11" d="M177.4,260.7h-77.3c-2.5,0-4.5-2-4.5-4.5s2-4.5,4.5-4.5h77.3c2.5,0,4.5,2,4.5,4.5S179.9,260.7,177.4,260.7z"
		/>
</g>
<g>
	<linearGradient id="SVGID_5_" gradientUnits="userSpaceOnUse" x1="95.5482" y1="274.3629" x2="127.3724" y2="274.3629">
		<stop  offset="0" style="stop-color:#154BFF"/>
		<stop  offset="1" style="stop-color:#5594FF"/>
	</linearGradient>
	<path class="st12" d="M122.8,278.9h-22.7c-2.5,0-4.5-2-4.5-4.5s2-4.5,4.5-4.5h22.7c2.5,0,4.5,2,4.5,4.5S125.3,278.9,122.8,278.9z"
		/>
</g>
<g>
	<linearGradient id="SVGID_6_" gradientUnits="userSpaceOnUse" x1="131.9187" y1="274.3629" x2="150.1039" y2="274.3629">
		<stop  offset="0" style="stop-color:#154BFF"/>
		<stop  offset="1" style="stop-color:#5594FF"/>
	</linearGradient>
	<path class="st13" d="M145.6,278.9h-9.1c-2.5,0-4.5-2-4.5-4.5s2-4.5,4.5-4.5h9.1c2.5,0,4.5,2,4.5,4.5S148.1,278.9,145.6,278.9z"/>
</g>
<linearGradient id="SVGID_7_" gradientUnits="userSpaceOnUse" x1="231.9437" y1="106.1494" x2="281.9469" y2="106.1494">
	<stop  offset="0" style="stop-color:#154BFF"/>
	<stop  offset="1" style="stop-color:#5594FF"/>
</linearGradient>
<path class="st14" d="M277.4,65.2h-29.9l5.9-5.9c1.8-1.8,1.8-4.7,0-6.4c-1.8-1.8-4.7-1.8-6.4,0l-13.6,13.6c-0.4,0.4-0.8,0.9-1,1.5
	c-0.5,1.1-0.5,2.4,0,3.5c0.2,0.6,0.6,1.1,1,1.5l13.6,13.6c0.9,0.9,2.1,1.3,3.2,1.3c1.2,0,2.3-0.4,3.2-1.3c1.8-1.8,1.8-4.7,0-6.4
	l-5.9-5.9h25.4v81.8c0,2.5,2,4.5,4.5,4.5s4.5-2,4.5-4.5V69.8C281.9,67.3,279.9,65.2,277.4,65.2z"/>
<linearGradient id="SVGID_8_" gradientUnits="userSpaceOnUse" x1="13.7147" y1="197.0756" x2="63.7179" y2="197.0756">
	<stop  offset="0" style="stop-color:#154BFF"/>
	<stop  offset="1" style="stop-color:#5594FF"/>
</linearGradient>
<path class="st15" d="M63.4,235.2c0.5-1.1,0.5-2.4,0-3.5c-0.2-0.6-0.6-1.1-1-1.5l-13.6-13.6c-1.8-1.8-4.7-1.8-6.4,0
	c-1.8,1.8-1.8,4.7,0,6.4l5.9,5.9H22.8v-81.8c0-2.5-2-4.5-4.5-4.5s-4.5,2-4.5,4.5v86.4c0,2.5,2,4.5,4.5,4.5h29.9l-5.9,5.9
	c-1.8,1.8-1.8,4.7,0,6.4c0.9,0.9,2.1,1.3,3.2,1.3c1.2,0,2.3-0.4,3.2-1.3l13.6-13.6C62.8,236.2,63.1,235.7,63.4,235.2z"/>
<g>
	<g>
		<path class="st22" d="M138.3,78.9c0,10-7.6,15.5-17.5,16.9v12.4h-11.7V95.6c-7.3-1.2-14.6-4.1-19.9-8.2L95.4,75
			c5.6,4.8,14.8,8.4,20.4,8.4c3.4,0,5.6-1.2,5.6-3.7c0-8.3-28.7-3.1-28.7-22.4c0-8.8,6.3-15,16.4-16.8V28.5h11.7v11.8
			c6.6,0.8,12.9,3,17.6,6l-6,12.5c-5.6-3.2-13.6-6.1-18.2-6.1c-2.7,0-4.5,0.9-4.5,3C109.6,63.8,138.3,59.1,138.3,78.9z"/>
	</g>
</g>
</svg>
