<?xml version="1.0" encoding="utf-8"?>
<!-- Generator: Adobe Illustrator 24.0.3, SVG Export Plug-In . SVG Version: 6.00 Build 0)  -->
<svg version="1.1" id="Calculator" xmlns="http://www.w3.org/2000/svg" xmlns:xlink="http://www.w3.org/1999/xlink" x="0px" y="0px"
	 viewBox="0 0 300 300" style="enable-background:new 0 0 300 300;" xml:space="preserve">
<style type="text/css">
	.st0{fill:#A5B2DB;}
	.st1{fill:#E7F3F7;}
	.st2{fill:#E6EEFF;}
	.st3{fill:#D0DBF7;}
	.st4{fill:#1759FF;}
	.st5{fill:#376CFB;}
	.st6{fill:#E6ECFF;}
	.st7{fill:url(#SVGID_1_);}
	.st8{fill:#4294FF;}
	.st9{fill:url(#SVGID_2_);}
	.st10{fill:url(#SVGID_3_);}
	.st11{fill:url(#SVGID_4_);}
	.st12{fill:url(#SVGID_5_);}
	.st13{fill:url(#SVGID_6_);}
	.st14{fill:url(#SVGID_7_);}
	.st15{fill:url(#SVGID_8_);}
	.st16{fill:url(#SVGID_9_);}
	.st17{fill:url(#SVGID_10_);}
	.st18{fill:url(#SVGID_11_);}
	.st19{fill:url(#SVGID_12_);}
	.st20{fill:url(#SVGID_13_);}
	.st21{fill:url(#SVGID_14_);}
	.st22{fill:#FFFFFF;}
	.st23{clip-path:url(#SVGID_16_);fill:#2454FF;}
	.st24{fill:#2946ED;}
	.st25{fill:url(#SVGID_17_);}
	.st26{fill:#AEC9FF;}
	.st27{clip-path:url(#SVGID_19_);fill:#2454FF;}
	.st28{fill:#BAC7E5;}
	.st29{fill:url(#SVGID_20_);}
	.st30{fill:url(#SVGID_21_);}
	.st31{fill:url(#SVGID_22_);}
	.st32{fill:url(#SVGID_23_);}
	.st33{fill:url(#SVGID_24_);}
	.st34{fill:url(#SVGID_25_);}
	.st35{fill:url(#SVGID_26_);}
	.st36{fill:url(#SVGID_27_);}
	.st37{fill:url(#SVGID_28_);}
	.st38{fill:url(#SVGID_29_);}
	.st39{fill:url(#SVGID_30_);}
	.st40{fill:url(#SVGID_31_);}
	.st41{fill:url(#SVGID_32_);}
	.st42{fill:url(#SVGID_33_);}
	.st43{fill:url(#SVGID_34_);}
</style>
<rect x="214.4" y="102.6" class="st0" width="55" height="106.3"/>
<rect x="39.8" y="100.9" class="st1" width="171.1" height="99.2"/>
<path class="st2" d="M33.6,1.8c-3.1,0-5.7,1.5-7.3,3.9c-1,1.4-1.5,3.2-1.5,5v37.7c0,1.8,0.6,3.5,1.5,4.9c0.6,0.9,1.4,1.8,2.4,2.5
	c0.1,0.1,0.2,0,0.3,0.1c1.4,0.9,3,1.4,4.7,1.4H68v17.1c11.8-0.1,23.7-0.1,35.6-0.1v-17h34.3c0.3,0,0.6-0.1,0.9-0.1
	c1.5-0.2,2.9-0.6,4.1-1.4c0.7-0.5,1.3-1.1,1.8-1.7c0.4-0.4,0.8-0.9,1-1.4c0.4-0.8,0.6-1.6,0.8-2.5c0.1-0.6,0.2-1.1,0.2-1.7V10.6
	c0-0.6-0.1-1.2-0.2-1.7c-0.2-1.1-0.7-2.2-1.3-3.2c-0.3-0.5-0.6-0.9-1-1.3c-0.4-0.4-0.9-0.7-1.3-1c-0.2-0.2-0.5-0.4-0.7-0.5
	c-0.3-0.1-0.6-0.2-0.8-0.3c-0.3-0.1-0.5-0.2-0.8-0.3c-0.6-0.2-1.2-0.3-1.7-0.3c-0.3,0-0.6-0.1-0.9-0.1H33.6L33.6,1.8z"/>
<path class="st3" d="M35.7,82.2c-4.9,0-8.9,3.9-8.9,8.8v130h247.5V91c0-2.3-0.9-4.6-2.6-6.2c-1.7-1.7-3.9-2.6-6.2-2.6H35.7z
	 M221.5,108.9h13.3c1.2,0,2.3,1,2.3,2.3v13.3c0,1.2-1,2.2-2.3,2.3h-13.3c-1.2,0-2.2-1-2.3-2.3v-13.3
	C219.3,110,220.3,108.9,221.5,108.9L221.5,108.9z M250.1,108.9h13.3c1.2,0,2.3,1,2.3,2.3v13.3c0,1.2-1,2.2-2.3,2.3h-13.3
	c-1.2,0-2.2-1-2.3-2.3v-13.3C247.9,110,248.9,108.9,250.1,108.9L250.1,108.9z M63.4,110h137.6c4.9,0,8.9,3.8,8.9,8.6v66
	c0,4.8-4,8.6-8.9,8.6H63.4c-4.9,0-8.8-3.8-8.8-8.6v-66C54.6,113.8,58.5,110,63.4,110L63.4,110z M221.5,142.8h13.3
	c1.2,0,2.3,0.9,2.3,2.2v13.3c0,1.2-1,2.2-2.3,2.3h-13.3c-1.2,0-2.2-1-2.3-2.3v-13.3C219.3,143.7,220.3,142.8,221.5,142.8
	L221.5,142.8z M250.1,142.8h13.3c1.2,0,2.3,0.9,2.3,2.2v13.3c0,1.2-1,2.2-2.3,2.3h-13.3c-1.2,0-2.2-1-2.3-2.3v-13.3
	C247.9,143.7,248.9,142.8,250.1,142.8L250.1,142.8z M221.5,176.5h13.3c1.2,0,2.3,1,2.3,2.3v13.3c0,1.2-1,2.2-2.3,2.2h-13.3
	c-1.2,0-2.3-0.9-2.3-2.2v-13.3C219.3,177.5,220.3,176.5,221.5,176.5L221.5,176.5z M250.1,176.5h13.3c1.2,0,2.3,1,2.3,2.3v13.3
	c0,1.2-1,2.2-2.3,2.2h-13.3c-1.2,0-2.3-0.9-2.3-2.2v-13.3C247.9,177.5,248.9,176.5,250.1,176.5L250.1,176.5z"/>
<path class="st2" d="M24.1,228.8c-4.7,6-9.9,12-14.7,18.2h282.9l-12.1-18.2H24.1z M5.6,255.9c-0.8,12.4,0,24.7,0,36.7
	c0,2.3,2.1,4.4,4.4,4.4h280.9c2.3,0,4.6-2.1,4.6-4.4c0-11.9,0.7-24.2,0-36.7H5.6z M150.5,267.3c5.2,0,9.4,4.2,9.4,9.2
	c0,5.1-4.2,9.1-9.4,9.1c-5.2,0-9.4-4.1-9.4-9.1C141.1,271.5,145.3,267.3,150.5,267.3L150.5,267.3z M150.5,267.3"/>
<rect x="36.8" y="9.7" class="st4" width="100.4" height="39.4"/>
</svg>
