<?xml version="1.0" encoding="utf-8"?>
<!-- Generator: Adobe Illustrator 24.0.3, SVG Export Plug-In . SVG Version: 6.00 Build 0)  -->
<svg version="1.1" id="Calculator" xmlns="http://www.w3.org/2000/svg" xmlns:xlink="http://www.w3.org/1999/xlink" x="0px" y="0px"
	 viewBox="0 0 300 300" style="enable-background:new 0 0 300 300;" xml:space="preserve">
<style type="text/css">
	.st0{fill:#A5B2DB;}
	.st1{fill:#E7F3F7;}
	.st2{fill:#E6EEFF;}
	.st3{fill:#D0DBF7;}
	.st4{fill:#1759FF;}
	.st5{fill:#376CFB;}
	.st6{fill:#E6ECFF;}
	.st7{fill:url(#SVGID_1_);}
	.st8{fill:#4294FF;}
	.st9{fill:url(#SVGID_2_);}
	.st10{fill:url(#SVGID_3_);}
	.st11{fill:url(#SVGID_4_);}
	.st12{fill:url(#SVGID_5_);}
	.st13{fill:url(#SVGID_6_);}
	.st14{fill:url(#SVGID_7_);}
	.st15{fill:url(#SVGID_8_);}
	.st16{fill:url(#SVGID_9_);}
	.st17{fill:url(#SVGID_10_);}
	.st18{fill:url(#SVGID_11_);}
	.st19{fill:url(#SVGID_12_);}
	.st20{fill:url(#SVGID_13_);}
	.st21{fill:url(#SVGID_14_);}
	.st22{fill:#FFFFFF;}
	.st23{clip-path:url(#SVGID_16_);fill:#2454FF;}
	.st24{fill:#2946ED;}
	.st25{fill:url(#SVGID_17_);}
	.st26{fill:#AEC9FF;}
	.st27{clip-path:url(#SVGID_19_);fill:#2454FF;}
	.st28{fill:#BAC7E5;}
	.st29{fill:url(#SVGID_20_);}
	.st30{fill:url(#SVGID_21_);}
	.st31{fill:url(#SVGID_22_);}
	.st32{fill:url(#SVGID_23_);}
	.st33{fill:url(#SVGID_24_);}
	.st34{fill:url(#SVGID_25_);}
	.st35{fill:url(#SVGID_26_);}
	.st36{fill:url(#SVGID_27_);}
	.st37{fill:url(#SVGID_28_);}
	.st38{fill:url(#SVGID_29_);}
	.st39{fill:url(#SVGID_30_);}
	.st40{fill:url(#SVGID_31_);}
	.st41{fill:url(#SVGID_32_);}
	.st42{fill:url(#SVGID_33_);}
	.st43{fill:url(#SVGID_34_);}
</style>
<g>
	<path class="st5" d="M192.7,267.2c-8,0-14.5-6.5-14.5-14.5v-24.1c0-2.7-2.2-4.8-4.8-4.8h-48.2c-2.7,0-4.8,2.2-4.8,4.8v24.1
		c0,8-6.5,14.5-14.5,14.5c-2.7,0-4.8,2.2-4.8,4.8s2.2,4.8,4.8,4.8h86.8c2.7,0,4.8-2.2,4.8-4.8S195.3,267.2,192.7,267.2z"/>
	<path class="st6" d="M294,11.6H4.6c-2.7,0-4.8,2.2-4.8,4.8v183.2c0,2.7,2.2,4.8,4.8,4.8H294c2.7,0,4.8-2.2,4.8-4.8V16.4
		C298.8,13.7,296.6,11.6,294,11.6z"/>
	<linearGradient id="SVGID_1_" gradientUnits="userSpaceOnUse" x1="-0.2001" y1="214.113" x2="298.7734" y2="214.113">
		<stop  offset="0" style="stop-color:#154BFF"/>
		<stop  offset="1" style="stop-color:#5594FF"/>
	</linearGradient>
	<path class="st7" d="M298.8,194.8h-299v33.8c0,2.7,2.2,4.8,4.8,4.8H294c2.7,0,4.8-2.2,4.8-4.8V194.8z"/>
	<path class="st8" d="M192.7,267.2h-86.8c-13.3,0-24.1,10.8-24.1,24.1v4.8c0,2.7,2.2,4.8,4.8,4.8H212c2.7,0,4.8-2.2,4.8-4.8v-4.8
		C216.8,278,206,267.2,192.7,267.2z"/>
	<g>
		<linearGradient id="SVGID_2_" gradientUnits="userSpaceOnUse" x1="173.3974" y1="45.3376" x2="279.4848" y2="45.3376">
			<stop  offset="0" style="stop-color:#154BFF"/>
			<stop  offset="1" style="stop-color:#5594FF"/>
		</linearGradient>
		<path class="st9" d="M274.7,50.2h-96.4c-2.7,0-4.8-2.2-4.8-4.8s2.2-4.8,4.8-4.8h96.4c2.7,0,4.8,2.2,4.8,4.8S277.3,50.2,274.7,50.2
			z"/>
	</g>
	<g>
		<linearGradient id="SVGID_3_" gradientUnits="userSpaceOnUse" x1="173.3974" y1="64.6262" x2="255.374" y2="64.6262">
			<stop  offset="0" style="stop-color:#154BFF"/>
			<stop  offset="1" style="stop-color:#5594FF"/>
		</linearGradient>
		<path class="st10" d="M250.6,69.4h-72.3c-2.7,0-4.8-2.2-4.8-4.8c0-2.7,2.2-4.8,4.8-4.8h72.3c2.7,0,4.8,2.2,4.8,4.8
			C255.4,67.3,253.2,69.4,250.6,69.4z"/>
	</g>
	<g>
		<linearGradient id="SVGID_4_" gradientUnits="userSpaceOnUse" x1="197.5082" y1="161.0693" x2="279.4848" y2="161.0693">
			<stop  offset="0" style="stop-color:#154BFF"/>
			<stop  offset="1" style="stop-color:#5594FF"/>
		</linearGradient>
		<path class="st11" d="M274.7,165.9h-72.3c-2.7,0-4.8-2.2-4.8-4.8c0-2.7,2.2-4.8,4.8-4.8h72.3c2.7,0,4.8,2.2,4.8,4.8
			C279.5,163.7,277.3,165.9,274.7,165.9z"/>
	</g>
	<g>
		<linearGradient id="SVGID_5_" gradientUnits="userSpaceOnUse" x1="173.3974" y1="103.2034" x2="255.374" y2="103.2034">
			<stop  offset="0" style="stop-color:#154BFF"/>
			<stop  offset="1" style="stop-color:#5594FF"/>
		</linearGradient>
		<path class="st12" d="M250.6,108h-72.3c-2.7,0-4.8-2.2-4.8-4.8c0-2.7,2.2-4.8,4.8-4.8h72.3c2.7,0,4.8,2.2,4.8,4.8
			C255.4,105.9,253.2,108,250.6,108z"/>
	</g>
	<g>
		<linearGradient id="SVGID_6_" gradientUnits="userSpaceOnUse" x1="197.5082" y1="122.4921" x2="279.4848" y2="122.4921">
			<stop  offset="0" style="stop-color:#154BFF"/>
			<stop  offset="1" style="stop-color:#5594FF"/>
		</linearGradient>
		<path class="st13" d="M274.7,127.3h-72.3c-2.7,0-4.8-2.2-4.8-4.8c0-2.7,2.2-4.8,4.8-4.8h72.3c2.7,0,4.8,2.2,4.8,4.8
			C279.5,125.2,277.3,127.3,274.7,127.3z"/>
	</g>
	<g>
		<linearGradient id="SVGID_7_" gradientUnits="userSpaceOnUse" x1="173.3974" y1="141.7807" x2="255.374" y2="141.7807">
			<stop  offset="0" style="stop-color:#154BFF"/>
			<stop  offset="1" style="stop-color:#5594FF"/>
		</linearGradient>
		<path class="st14" d="M250.6,146.6h-72.3c-2.7,0-4.8-2.2-4.8-4.8c0-2.7,2.2-4.8,4.8-4.8h72.3c2.7,0,4.8,2.2,4.8,4.8
			C255.4,144.4,253.2,146.6,250.6,146.6z"/>
	</g>
	<g>
		<linearGradient id="SVGID_8_" gradientUnits="userSpaceOnUse" x1="197.5082" y1="83.9148" x2="279.4848" y2="83.9148">
			<stop  offset="0" style="stop-color:#154BFF"/>
			<stop  offset="1" style="stop-color:#5594FF"/>
		</linearGradient>
		<path class="st15" d="M274.7,88.7h-72.3c-2.7,0-4.8-2.2-4.8-4.8c0-2.7,2.2-4.8,4.8-4.8h72.3c2.7,0,4.8,2.2,4.8,4.8
			C279.5,86.6,277.3,88.7,274.7,88.7z"/>
	</g>
	<g>
		<linearGradient id="SVGID_9_" gradientUnits="userSpaceOnUse" x1="260.1962" y1="64.6262" x2="279.4848" y2="64.6262">
			<stop  offset="0" style="stop-color:#154BFF"/>
			<stop  offset="1" style="stop-color:#5594FF"/>
		</linearGradient>
		<path class="st16" d="M274.7,69.4H265c-2.7,0-4.8-2.2-4.8-4.8c0-2.7,2.2-4.8,4.8-4.8h9.6c2.7,0,4.8,2.2,4.8,4.8
			C279.5,67.3,277.3,69.4,274.7,69.4z"/>
	</g>
	<g>
		<linearGradient id="SVGID_10_" gradientUnits="userSpaceOnUse" x1="173.3974" y1="161.0693" x2="192.686" y2="161.0693">
			<stop  offset="0" style="stop-color:#154BFF"/>
			<stop  offset="1" style="stop-color:#5594FF"/>
		</linearGradient>
		<path class="st17" d="M187.9,165.9h-9.6c-2.7,0-4.8-2.2-4.8-4.8c0-2.7,2.2-4.8,4.8-4.8h9.6c2.7,0,4.8,2.2,4.8,4.8
			C192.7,163.7,190.5,165.9,187.9,165.9z"/>
	</g>
	<g>
		<linearGradient id="SVGID_11_" gradientUnits="userSpaceOnUse" x1="260.1962" y1="103.2034" x2="279.4848" y2="103.2034">
			<stop  offset="0" style="stop-color:#154BFF"/>
			<stop  offset="1" style="stop-color:#5594FF"/>
		</linearGradient>
		<path class="st18" d="M274.7,108H265c-2.7,0-4.8-2.2-4.8-4.8c0-2.7,2.2-4.8,4.8-4.8h9.6c2.7,0,4.8,2.2,4.8,4.8
			C279.5,105.9,277.3,108,274.7,108z"/>
	</g>
	<g>
		<linearGradient id="SVGID_12_" gradientUnits="userSpaceOnUse" x1="173.3974" y1="122.4921" x2="192.686" y2="122.4921">
			<stop  offset="0" style="stop-color:#154BFF"/>
			<stop  offset="1" style="stop-color:#5594FF"/>
		</linearGradient>
		<path class="st19" d="M187.9,127.3h-9.6c-2.7,0-4.8-2.2-4.8-4.8c0-2.7,2.2-4.8,4.8-4.8h9.6c2.7,0,4.8,2.2,4.8,4.8
			C192.7,125.2,190.5,127.3,187.9,127.3z"/>
	</g>
	<g>
		<linearGradient id="SVGID_13_" gradientUnits="userSpaceOnUse" x1="260.1962" y1="141.7807" x2="279.4848" y2="141.7807">
			<stop  offset="0" style="stop-color:#154BFF"/>
			<stop  offset="1" style="stop-color:#5594FF"/>
		</linearGradient>
		<path class="st20" d="M274.7,146.6H265c-2.7,0-4.8-2.2-4.8-4.8c0-2.7,2.2-4.8,4.8-4.8h9.6c2.7,0,4.8,2.2,4.8,4.8
			C279.5,144.4,277.3,146.6,274.7,146.6z"/>
	</g>
	<g>
		<linearGradient id="SVGID_14_" gradientUnits="userSpaceOnUse" x1="173.3974" y1="83.9148" x2="192.686" y2="83.9148">
			<stop  offset="0" style="stop-color:#154BFF"/>
			<stop  offset="1" style="stop-color:#5594FF"/>
		</linearGradient>
		<path class="st21" d="M187.9,88.7h-9.6c-2.7,0-4.8-2.2-4.8-4.8c0-2.7,2.2-4.8,4.8-4.8h9.6c2.7,0,4.8,2.2,4.8,4.8
			C192.7,86.6,190.5,88.7,187.9,88.7z"/>
	</g>
	<g>
		<path class="st22" d="M28.7,218.9h-9.6c-2.7,0-4.8-2.2-4.8-4.8s2.2-4.8,4.8-4.8h9.6c2.7,0,4.8,2.2,4.8,4.8S31.4,218.9,28.7,218.9z
			"/>
	</g>
	<g>
		<path class="st22" d="M96.2,218.9h-53c-2.7,0-4.8-2.2-4.8-4.8s2.2-4.8,4.8-4.8h53c2.7,0,4.8,2.2,4.8,4.8S98.9,218.9,96.2,218.9z"
			/>
	</g>
</g>
<g>
	<g>
		<defs>
			<rect id="SVGID_15_" x="42" y="57.4" width="91.6" height="85"/>
		</defs>
		<clipPath id="SVGID_16_">
			<use xlink:href="#SVGID_15_"  style="overflow:visible;"/>
		</clipPath>
		<path class="st23" d="M132.2,77.2L125,62.9c-1.7-3.4-5.2-5.5-8.9-5.5H59.4c-3.8,0-7.2,2.1-8.9,5.5l-7.3,14.2
			c-4,9.2,1.9,20.2,12,21c5.6,0.5,11-2.1,14.2-6.8c0.6-0.9,1.6-1.4,2.7-1.4c1.1,0,2.1,0.5,2.7,1.4c2.8,4.1,7.5,6.8,12.9,6.8
			c5.4,0,10.1-2.7,12.9-6.8c0.6-0.9,1.6-1.4,2.7-1.4c1.1,0,2.1,0.5,2.7,1.4c3.2,4.7,8.6,7.3,14.2,6.8
			C130.3,97.3,136.3,86.4,132.2,77.2L132.2,77.2z M121.7,104.6c-0.9,0.1-1.8,0.2-2.7,0.2c-4.9,0-9.7-1.6-13.6-4.6
			c-1.2-0.9-2.9-0.9-4.1,0c-3.9,3-8.6,4.6-13.6,4.6c-4.9,0-9.7-1.6-13.6-4.6c-1.2-0.9-2.9-0.9-4.1,0c-4.6,3.6-10.5,5.2-16.3,4.5
			c-0.9-0.1-1.9,0.2-2.6,0.8c-0.7,0.6-1.1,1.5-1.1,2.4v27.8c0,3.7,2.9,6.6,6.5,6.6h62.3c3.6,0,6.5-3,6.5-6.6v-27.8
			C125.3,105.9,123.6,104.3,121.7,104.6L121.7,104.6z M108.1,129.2H67.3c-1.8,0-3.3-1.5-3.3-3.3c0-1.8,1.5-3.3,3.3-3.3h40.8
			c1.8,0,3.3,1.5,3.3,3.3C111.4,127.8,109.9,129.2,108.1,129.2L108.1,129.2z M108.1,129.2"/>
	</g>
</g>
</svg>
