<?xml version="1.0" encoding="utf-8"?>
<!-- Generator: Adobe Illustrator 24.0.3, SVG Export Plug-In . SVG Version: 6.00 Build 0)  -->
<svg version="1.1" id="Calculator" xmlns="http://www.w3.org/2000/svg" xmlns:xlink="http://www.w3.org/1999/xlink" x="0px" y="0px"
	 viewBox="0 0 300 300" style="enable-background:new 0 0 300 300;" xml:space="preserve">
<style type="text/css">
	.st0{fill:#A5B2DB;}
	.st1{fill:#E7F3F7;}
	.st2{fill:#E6EEFF;}
	.st3{fill:#D0DBF7;}
	.st4{fill:#1759FF;}
	.st5{fill:#376CFB;}
	.st6{fill:#E6ECFF;}
	.st7{fill:url(#SVGID_1_);}
	.st8{fill:#4294FF;}
	.st9{fill:url(#SVGID_2_);}
	.st10{fill:url(#SVGID_3_);}
	.st11{fill:url(#SVGID_4_);}
	.st12{fill:url(#SVGID_5_);}
	.st13{fill:url(#SVGID_6_);}
	.st14{fill:url(#SVGID_7_);}
	.st15{fill:url(#SVGID_8_);}
	.st16{fill:url(#SVGID_9_);}
	.st17{fill:url(#SVGID_10_);}
	.st18{fill:url(#SVGID_11_);}
	.st19{fill:url(#SVGID_12_);}
	.st20{fill:url(#SVGID_13_);}
	.st21{fill:url(#SVGID_14_);}
	.st22{fill:#FFFFFF;}
	.st23{clip-path:url(#SVGID_16_);fill:#2454FF;}
	.st24{fill:#2946ED;}
	.st25{fill:url(#SVGID_17_);}
	.st26{fill:#AEC9FF;}
	.st27{clip-path:url(#SVGID_19_);fill:#2454FF;}
	.st28{fill:#BAC7E5;}
	.st29{fill:url(#SVGID_20_);}
	.st30{fill:url(#SVGID_21_);}
	.st31{fill:url(#SVGID_22_);}
	.st32{fill:url(#SVGID_23_);}
	.st33{fill:url(#SVGID_24_);}
	.st34{fill:url(#SVGID_25_);}
	.st35{fill:url(#SVGID_26_);}
	.st36{fill:url(#SVGID_27_);}
	.st37{fill:url(#SVGID_28_);}
	.st38{fill:url(#SVGID_29_);}
	.st39{fill:url(#SVGID_30_);}
	.st40{fill:url(#SVGID_31_);}
	.st41{fill:url(#SVGID_32_);}
	.st42{fill:url(#SVGID_33_);}
	.st43{fill:url(#SVGID_34_);}
</style>
<g>
	<path class="st6" d="M178.4,4.6H27.9C15,4.6,4.4,15.1,4.4,28.1v244.5c0,13,10.5,23.5,23.5,23.5h169.3c2.6,0,4.7-2.1,4.7-4.7V28.1
		C201.9,15.1,191.4,4.6,178.4,4.6z"/>
	<g>
		<path class="st3" d="M122,220.9H84.4c-2.6,0-4.7,2.1-4.7,4.7v47c0,2.6,2.1,4.7,4.7,4.7H122c2.6,0,4.7-2.1,4.7-4.7v-47
			C126.7,223,124.6,220.9,122,220.9z"/>
		<path class="st3" d="M65.6,220.9H27.9c-2.6,0-4.7,2.1-4.7,4.7v47c0,2.6,2.1,4.7,4.7,4.7h37.6c2.6,0,4.7-2.1,4.7-4.7v-47
			C70.3,223,68.2,220.9,65.6,220.9z"/>
		<path class="st3" d="M122,155H84.4c-2.6,0-4.7,2.1-4.7,4.7v47c0,2.6,2.1,4.7,4.7,4.7H122c2.6,0,4.7-2.1,4.7-4.7v-47
			C126.7,157.2,124.6,155,122,155z"/>
		<path class="st3" d="M178.4,220.9h-28.2h-9.4c-2.6,0-4.7,2.1-4.7,4.7v47c0,2.6,2.1,4.7,4.7,4.7h37.6c2.6,0,4.7-2.1,4.7-4.7v-47
			C183.1,223,181,220.9,178.4,220.9z"/>
		<path class="st3" d="M178.4,155h-37.6c-2.6,0-4.7,2.1-4.7,4.7v47c0,2.6,2.1,4.7,4.7,4.7h37.6c2.6,0,4.7-2.1,4.7-4.7v-47
			C183.1,157.2,181,155,178.4,155z"/>
		<path class="st3" d="M65.6,155H27.9c-2.6,0-4.7,2.1-4.7,4.7v47c0,2.6,2.1,4.7,4.7,4.7h37.6c2.6,0,4.7-2.1,4.7-4.7v-47
			C70.3,157.2,68.2,155,65.6,155z"/>
		<path class="st3" d="M122,89.2H84.4c-2.6,0-4.7,2.1-4.7,4.7v47c0,2.6,2.1,4.7,4.7,4.7H122c2.6,0,4.7-2.1,4.7-4.7v-47
			C126.7,91.3,124.6,89.2,122,89.2z"/>
		<path class="st3" d="M65.6,89.2H27.9c-2.6,0-4.7,2.1-4.7,4.7v47c0,2.6,2.1,4.7,4.7,4.7h37.6c2.6,0,4.7-2.1,4.7-4.7v-47
			C70.3,91.3,68.2,89.2,65.6,89.2z"/>
		<path class="st3" d="M178.4,89.2h-37.6c-2.6,0-4.7,2.1-4.7,4.7v47c0,2.6,2.1,4.7,4.7,4.7h37.6c2.6,0,4.7-2.1,4.7-4.7v-47
			C183.1,91.3,181,89.2,178.4,89.2z"/>
		<path class="st3" d="M178.4,23.4H27.9c-2.6,0-4.7,2.1-4.7,4.7v47c0,2.6,2.1,4.7,4.7,4.7h150.5c2.6,0,4.7-2.1,4.7-4.7v-47
			C183.1,25.5,181,23.4,178.4,23.4z"/>
	</g>
	<g>
		<linearGradient id="SVGID_1_" gradientUnits="userSpaceOnUse" x1="37.3516" y1="51.6096" x2="46.7551" y2="51.6096">
			<stop  offset="0" style="stop-color:#154BFF"/>
			<stop  offset="1" style="stop-color:#5594FF"/>
		</linearGradient>
		<path class="st7" d="M42.1,65.7c-2.6,0-4.7-2.1-4.7-4.7V42.2c0-2.6,2.1-4.7,4.7-4.7s4.7,2.1,4.7,4.7V61
			C46.8,63.6,44.7,65.7,42.1,65.7z"/>
	</g>
	<g>
		<linearGradient id="SVGID_2_" gradientUnits="userSpaceOnUse" x1="51.4569" y1="51.6096" x2="60.8604" y2="51.6096">
			<stop  offset="0" style="stop-color:#154BFF"/>
			<stop  offset="1" style="stop-color:#5594FF"/>
		</linearGradient>
		<path class="st9" d="M56.2,65.7c-2.6,0-4.7-2.1-4.7-4.7V42.2c0-2.6,2.1-4.7,4.7-4.7c2.6,0,4.7,2.1,4.7,4.7V61
			C60.9,63.6,58.8,65.7,56.2,65.7z"/>
	</g>
	<g>
		<linearGradient id="SVGID_3_" gradientUnits="userSpaceOnUse" x1="65.5621" y1="51.6096" x2="74.9657" y2="51.6096">
			<stop  offset="0" style="stop-color:#154BFF"/>
			<stop  offset="1" style="stop-color:#5594FF"/>
		</linearGradient>
		<path class="st10" d="M70.3,65.7c-2.6,0-4.7-2.1-4.7-4.7V42.2c0-2.6,2.1-4.7,4.7-4.7c2.6,0,4.7,2.1,4.7,4.7V61
			C75,63.6,72.9,65.7,70.3,65.7z"/>
	</g>
	<circle class="st8" cx="225.4" cy="225.6" r="70.5"/>
	<path class="st5" d="M295.9,225.6c0,1.6,0,3.2-0.2,4.7h-23.3c-2.6,0-4.7-2.1-4.7-4.7c0-2.6,2.1-4.7,4.7-4.7h23.3
		C295.9,222.4,295.9,224,295.9,225.6z"/>
	<g>
		<path class="st5" d="M230.1,155.2v23.3c0,2.6-2.1,4.7-4.7,4.7s-4.7-2.1-4.7-4.7v-23.3c1.6-0.1,3.1-0.2,4.7-0.2
			S228.6,155.1,230.1,155.2z"/>
	</g>
	<g>
		<path class="st5" d="M195.5,195.7c-0.9,0.9-2.2,1.4-3.3,1.4c-1.2,0-2.4-0.5-3.3-1.4l-16.5-16.5c2.1-2.4,4.3-4.6,6.6-6.6l16.5,16.5
			C197.4,190.8,197.4,193.8,195.5,195.7z"/>
	</g>
	<g>
		<path class="st5" d="M195.5,262.2l-16.5,16.5c-2.4-2-4.7-4.3-6.7-6.7l16.5-16.5c1.8-1.8,4.8-1.8,6.7,0
			C197.4,257.3,197.4,260.3,195.5,262.2z"/>
	</g>
	<g>
		<path class="st5" d="M230.1,272.6v23.3c-1.6,0.1-3.1,0.2-4.7,0.2s-3.2,0-4.7-0.2v-23.3c0-2.6,2.1-4.7,4.7-4.7
			S230.1,270,230.1,272.6z"/>
	</g>
	<g>
		<path class="st5" d="M278.5,271.9c-2,2.4-4.3,4.7-6.7,6.7l-16.5-16.5c-1.8-1.8-1.8-4.8,0-6.7c1.8-1.8,4.8-1.8,6.7,0L278.5,271.9z"
			/>
	</g>
	<g>
		<path class="st5" d="M295.9,225.6c0,1.6,0,3.2-0.2,4.7h-23.3c-2.6,0-4.7-2.1-4.7-4.7c0-2.6,2.1-4.7,4.7-4.7h23.3
			C295.9,222.4,295.9,224,295.9,225.6z"/>
	</g>
	<g>
		<path class="st5" d="M183.1,225.6c0,2.6-2.1,4.7-4.7,4.7h-23.3c-0.1-1.6-0.2-3.1-0.2-4.7c0-1.6,0-3.2,0.2-4.7h23.3
			C181,220.9,183.1,223,183.1,225.6z"/>
	</g>
	<g>
		<path class="st5" d="M278.5,179.2L262,195.7c-0.9,0.9-2.1,1.4-3.3,1.4c-1.2,0-2.4-0.5-3.3-1.4c-1.8-1.8-1.8-4.8,0-6.7l16.5-16.5
			C274.2,174.6,276.4,176.8,278.5,179.2z"/>
	</g>
	<linearGradient id="SVGID_4_" gradientUnits="userSpaceOnUse" x1="173.7025" y1="225.5745" x2="277.141" y2="225.5745">
		<stop  offset="0" style="stop-color:#154BFF"/>
		<stop  offset="1" style="stop-color:#5594FF"/>
	</linearGradient>
	<circle class="st11" cx="225.4" cy="225.6" r="51.7"/>
</g>
<g>
	<g>
		<path class="st22" d="M248.9,236.3c0,10-7.6,15.5-17.5,16.9v12.4h-11.7v-12.5c-7.3-1.2-14.6-4.1-19.9-8.2l6.1-12.4
			c5.6,4.8,14.8,8.4,20.4,8.4c3.4,0,5.6-1.2,5.6-3.7c0-8.3-28.7-3.1-28.7-22.4c0-8.8,6.3-15,16.4-16.8V186h11.7v11.8
			c6.6,0.8,12.9,3,17.6,6l-6,12.5c-5.6-3.2-13.6-6.1-18.2-6.1c-2.7,0-4.5,0.9-4.5,3C220.2,221.3,248.9,216.5,248.9,236.3z"/>
	</g>
</g>
</svg>
