<?xml version="1.0" encoding="utf-8"?>
<!-- Generator: Adobe Illustrator 24.0.3, SVG Export Plug-In . SVG Version: 6.00 Build 0)  -->
<svg version="1.1" id="Calculator" xmlns="http://www.w3.org/2000/svg" xmlns:xlink="http://www.w3.org/1999/xlink" x="0px" y="0px"
	 viewBox="0 0 300 300" style="enable-background:new 0 0 300 300;" xml:space="preserve">
<style type="text/css">
	.st0{fill:#A5B2DB;}
	.st1{fill:#E7F3F7;}
	.st2{fill:#E6EEFF;}
	.st3{fill:#D0DBF7;}
	.st4{fill:#1759FF;}
	.st5{fill:#376CFB;}
	.st6{fill:#E6ECFF;}
	.st7{fill:url(#SVGID_1_);}
	.st8{fill:#4294FF;}
	.st9{fill:url(#SVGID_2_);}
	.st10{fill:url(#SVGID_3_);}
	.st11{fill:url(#SVGID_4_);}
	.st12{fill:url(#SVGID_5_);}
	.st13{fill:url(#SVGID_6_);}
	.st14{fill:url(#SVGID_7_);}
	.st15{fill:url(#SVGID_8_);}
	.st16{fill:url(#SVGID_9_);}
	.st17{fill:url(#SVGID_10_);}
	.st18{fill:url(#SVGID_11_);}
	.st19{fill:url(#SVGID_12_);}
	.st20{fill:url(#SVGID_13_);}
	.st21{fill:url(#SVGID_14_);}
	.st22{fill:#FFFFFF;}
	.st23{clip-path:url(#SVGID_16_);fill:#2454FF;}
	.st24{fill:#2946ED;}
	.st25{fill:url(#SVGID_17_);}
	.st26{fill:#AEC9FF;}
	.st27{clip-path:url(#SVGID_19_);fill:#2454FF;}
	.st28{fill:#BAC7E5;}
	.st29{fill:url(#SVGID_20_);}
	.st30{fill:url(#SVGID_21_);}
	.st31{fill:url(#SVGID_22_);}
	.st32{fill:url(#SVGID_23_);}
	.st33{fill:url(#SVGID_24_);}
	.st34{fill:url(#SVGID_25_);}
	.st35{fill:url(#SVGID_26_);}
	.st36{fill:url(#SVGID_27_);}
	.st37{fill:url(#SVGID_28_);}
	.st38{fill:url(#SVGID_29_);}
	.st39{fill:url(#SVGID_30_);}
	.st40{fill:url(#SVGID_31_);}
	.st41{fill:url(#SVGID_32_);}
	.st42{fill:url(#SVGID_33_);}
	.st43{fill:url(#SVGID_34_);}
</style>
<g>
	<path class="st6" d="M270.1,62.8H31.6c-2.5,0-4.6,2.1-4.6,4.6v188c0,2.5,2.1,4.6,4.6,4.6h238.5c2.5,0,4.6-2.1,4.6-4.6v-188
		C274.7,64.9,272.6,62.8,270.1,62.8z"/>
	<path class="st3" d="M251.7,62.8H49.9c-2.5,0-4.6,2.1-4.6,4.6v160.5c0,2.5,2.1,4.6,4.6,4.6h201.8c2.5,0,4.6-2.1,4.6-4.6V67.4
		C256.3,64.9,254.3,62.8,251.7,62.8z"/>
	<path class="st24" d="M270.1,3.2H31.6L13.2,49.1v27.5c0,15.2,12.3,27.5,27.5,27.5s27.5-12.3,27.5-27.5c0,15.2,12.3,27.5,27.5,27.5
		s27.5-12.3,27.5-27.5c0,15.2,12.3,27.5,27.5,27.5c15.2,0,27.5-12.3,27.5-27.5c0,15.2,12.3,27.5,27.5,27.5
		c15.2,0,27.5-12.3,27.5-27.5c0,15.2,12.3,27.5,27.5,27.5c15.2,0,27.5-12.3,27.5-27.5V49.1L270.1,3.2z"/>
	<polygon class="st8" points="270.1,3.2 31.6,3.2 13.2,49.1 288.4,49.1 	"/>
	<linearGradient id="SVGID_1_" gradientUnits="userSpaceOnUse" x1="4.075" y1="273.7983" x2="297.5816" y2="273.7983">
		<stop  offset="0" style="stop-color:#154BFF"/>
		<stop  offset="1" style="stop-color:#5594FF"/>
	</linearGradient>
	<path class="st7" d="M296.6,252.6c-0.9-1.1-2.2-1.8-3.6-1.8H8.7c-1.4,0-2.7,0.6-3.6,1.8c-0.9,1.1-1.2,2.6-0.8,3.9l9.2,36.7
		c0.5,2,2.3,3.5,4.4,3.5h266c2.1,0,3.9-1.4,4.4-3.5l9.2-36.7C297.8,255.2,297.5,253.7,296.6,252.6z"/>
	<path class="st26" d="M53.2,250.9l6,24c0.5,2,2.3,3.5,4.4,3.5H238c2.1,0,3.9-1.4,4.4-3.5l6-24H53.2z"/>
	<path class="st5" d="M178.3,49.1v27.5c0,15.2,12.3,27.5,27.5,27.5c15.2,0,27.5-12.3,27.5-27.5V49.1H178.3z"/>
	<path class="st5" d="M68.3,49.1v27.5c0,15.2,12.3,27.5,27.5,27.5s27.5-12.3,27.5-27.5V49.1H68.3z"/>
	<polygon class="st5" points="178.3,49.1 123.3,49.1 130.5,3.2 171.2,3.2 	"/>
	<polygon class="st5" points="82,3.2 68.3,49.1 13.2,49.1 31.6,3.2 	"/>
	<polygon class="st5" points="288.4,49.1 233.4,49.1 219.6,3.2 270.1,3.2 	"/>
</g>
<g>
	<defs>
		<rect id="SVGID_18_" x="111.8" y="119.4" width="80.3" height="80.4"/>
	</defs>
	<clipPath id="SVGID_2_">
		<use xlink:href="#SVGID_18_"  style="overflow:visible;"/>
	</clipPath>
	<path style="clip-path:url(#SVGID_2_);fill:#2454FF;" d="M161.9,150.3c-0.6-0.6-1.3-1.2-1.9-1.7l0,0c-0.7-0.7-1.6-1.1-2.7-1.1
		c-2.1,0-3.9,1.7-3.9,3.9c0,0.9,0.3,1.8,0.9,2.5c0,0,0,0,0,0c0.3,0.3,0.6,0.6,1,0.8c0.4,0.3,0.7,0.6,1.1,0.9l0.3,0.3
		c4,4,2.8,10.9-1.2,14.9l-17.1,17.1c-4,4-10.5,4-14.5,0l-0.3-0.3c-4-4-4-10.5,0-14.5l7.5-7.5c1-0.8,1.6-2,1.6-3.3
		c0-2.3-1.9-4.2-4.2-4.2c-0.9,0-1.7,0.3-2.4,0.7c0,0,0,0,0,0l-0.1,0.1c-0.3,0.2-0.6,0.5-0.8,0.7l-7.8,7.3c-7.4,7.4-7.4,19.4,0,26.8
		l0.3,0.3c7.4,7.4,19.4,7.4,26.8,0l17.1-17.1c7.4-7.4,8-19,0.6-26.4L161.9,150.3z M161.9,150.3"/>
	<path style="clip-path:url(#SVGID_2_);fill:#2454FF;" d="M186.5,125.2l-0.3-0.3c-7.4-7.4-19.4-7.4-26.8,0L142.3,142
		c-7.4,7.4-7.8,18-0.4,25.4l0.3,0.3c0.3,0.3,0.7,0.7,1,1c0.3,0.3,0.6,0.5,0.9,0.7c0,0,0,0,0,0l0,0c0.5,0.3,1.2,0.5,1.8,0.5
		c2,0,3.6-1.6,3.6-3.6c0-0.6-0.1-1.1-0.4-1.6c-0.5-1.1-1.4-1.7-2-2.4l-0.3-0.3c-4-4-2.5-9.8,1.5-13.8l17.1-17.1c4-4,10.5-4,14.5,0
		l0.3,0.3c4,4,4,10.5,0,14.5l-7.5,7.5c-1,0.8-1.7,2-1.7,3.3c0,2.3,1.9,4.2,4.2,4.2c0.8,0,1.5-0.2,2.2-0.6c0,0,0,0,0,0l0.1-0.1
		c0.4-0.2,0.7-0.5,0.9-0.9l7.9-7.3C193.9,144.7,193.9,132.6,186.5,125.2L186.5,125.2z M186.5,125.2"/>
</g>
</svg>
