<?xml version="1.0" encoding="utf-8"?>
<!-- Generator: Adobe Illustrator 24.0.3, SVG Export Plug-In . SVG Version: 6.00 Build 0)  -->
<svg version="1.1" id="图层_1" xmlns="http://www.w3.org/2000/svg" xmlns:xlink="http://www.w3.org/1999/xlink" x="0px" y="0px"
	 viewBox="0 0 850.4 850.4" style="enable-background:new 0 0 850.4 850.4;" xml:space="preserve">
<style type="text/css">
	.st0{fill:#1240E5;stroke:#3AB9B8;stroke-width:8.5039;stroke-miterlimit:10;}
	.st1{fill:#1240E5;}
</style>
<path class="st0" d="M825.9,296.1c-18.7-58-48.6-110-88.8-154.3C604.5-4.4,390.5-37.8,216.6,60.3c-148.8,84-233,260.3-204.8,428.8
	c12,71.7,39.8,136.1,82.6,191.3c9.5,12.2,27,14.4,39.3,4.9c12.2-9.5,14.4-27.1,4.9-39.3C101.1,597.5,77.6,543.1,67,479.7
	c-24.4-145.6,48.5-298,177.1-370.6c151-85.4,336.6-56.3,451.5,70.3c34.8,38.4,60.7,83.4,77,133.8c32.4,100.5,19,210.3-36.9,301.2
	c-55.7,90.7-147.4,152.1-251.5,168.4c-16,2.6-36.7,4.9-58.7,5.2c-56.7-0.6-110.2-13.3-159.1-37.8c-17.9-8.9-34.8-8-51.8,2.8
	c-43,27.4-86.3,37.7-132.3,32.4c-15.6-2.2-29.3,9.1-31.2,24.4c-1.9,15.4,9.1,29.3,24.4,31.2c58.9,7.5,115.6-6.6,165.8-40.7
	c56.5,28.2,118.3,43,183.5,43.7h3.5c24.3,0,47.1-3.1,64.5-5.8c120.2-18.8,226.1-89.7,290.5-194.4
	C847.9,538.9,863.4,412.1,825.9,296.1L825.9,296.1z"/>
<path class="st1" d="M202.3,424.4c0,30.9,25.1,56,56,56c30.9,0,56-25.1,56-56c0-30.9-25.1-56-56-56
	C227.4,368.4,202.3,393.5,202.3,424.4L202.3,424.4z M202.3,424.4"/>
<path class="st1" d="M370.3,424.4c0,30.9,25.1,56,56,56c30.9,0,56-25.1,56-56c0-30.9-25.1-56-56-56
	C395.3,368.4,370.3,393.5,370.3,424.4L370.3,424.4z M370.3,424.4"/>
<path class="st1" d="M538.2,424.4c0,30.9,25.1,56,56,56c30.9,0,56-25.1,56-56c0-30.9-25.1-56-56-56
	C563.3,368.4,538.2,393.5,538.2,424.4L538.2,424.4z M538.2,424.4"/>
</svg>
