<svg style="position:absolute;width:0;height:0" xmlns="http://www.w3.org/2000/svg" overflow="hidden"><defs><symbol id="icon-check-circle" viewBox="0 0 1024 1024"><path class="path1" d="M512 0C229.216 0 0 229.248 0 512c0 282.784 229.216 512 512 512s512-229.216 512-512C1024 229.248 794.784 0 512 0zm244.992 409.888L472.256 694.624c-6.688 6.688-15.584 9.504-24.288 9.056-8.768.416-17.568-2.432-24.224-9.056L266.976 537.856c-12.48-12.512-12.48-32.736 0-45.248 12.512-12.544 32.768-12.512 45.28 0l135.776 135.744 263.712-263.776c12.512-12.448 32.736-12.512 45.248 0 12.544 12.576 12.512 32.768 0 45.312z"/></symbol><symbol id="icon-oberlo-small" viewBox="0 0 240 240"><rect width="240" height="240" rx="36" ry="36" fill="#27b7d7"/><path d="M170 68H98.91a36 36 0 0 0-25.45 10.54l-28.73 28.73a18 18 0 0 0 0 25.46l28.73 28.73A36 36 0 0 0 98.91 172H170a18 18 0 0 0 18-18V86a18 18 0 0 0-18-18zm-72 70a18 18 0 1 1 18-18 18 18 0 0 1-18 18z" fill="#fff"/></symbol><symbol id="icon-facebook" viewBox="0 0 32 32"><path d="M21.586 7.004L18.948 7c-2.964 0-4.88 1.835-4.88 4.676v2.156h-2.653c-.229 0-.415.174-.415.388v3.124c0 .214.186.387.415.387h2.653v7.882c0 .214.186.387.415.387h3.461c.229 0 .415-.174.415-.387v-7.882h3.102c.229 0 .415-.173.415-.387l.001-3.124c0-.103-.044-.201-.122-.274s-.183-.114-.294-.114h-3.103v-1.828c0-.878.224-1.324 1.449-1.324l1.777-.001c.229 0 .415-.174.415-.387V7.391c0-.214-.185-.387-.414-.387z"/></symbol><symbol id="icon-instagram" viewBox="0 0 32 32"><path d="M20.308 8h-7.617A4.696 4.696 0 0 0 8 12.691v7.617a4.696 4.696 0 0 0 4.691 4.691h7.617A4.697 4.697 0 0 0 25 20.308v-7.617A4.696 4.696 0 0 0 20.309 8zm3.184 12.309a3.187 3.187 0 0 1-3.183 3.183h-7.617a3.187 3.187 0 0 1-3.183-3.183v-7.617a3.187 3.187 0 0 1 3.183-3.183h7.617a3.187 3.187 0 0 1 3.183 3.183v7.617z"/><path d="M16.5 12c-2.481 0-4.5 2.019-4.5 4.5s2.019 4.5 4.5 4.5 4.5-2.019 4.5-4.5-2.019-4.5-4.5-4.5zm0 7.45c-1.627 0-2.951-1.323-2.951-2.95s1.324-2.951 2.951-2.951 2.951 1.324 2.951 2.951a2.954 2.954 0 0 1-2.951 2.95zm5-8.45a1.504 1.504 0 0 0-1.5 1.5c0 .394.161.781.44 1.061.278.278.665.439 1.06.439s.781-.161 1.061-.439c.28-.28.439-.667.439-1.061 0-.395-.16-.783-.439-1.061A1.503 1.503 0 0 0 21.5 11z"/></symbol><symbol id="icon-linkedin" viewBox="0 0 32 32"><path d="M11.723 12.967H8.277c-.153 0-.277.107-.277.238v9.524c0 .132.124.238.277.238h3.446c.153 0 .277-.107.277-.238v-9.524c0-.132-.124-.238-.277-.238zM9.979 8C8.888 8 8 8.887 8 9.977s.888 1.978 1.979 1.978c1.09 0 1.977-.887 1.977-1.978S11.069 8 9.979 8zm9.122 4.972c-1.225 0-2.131.504-2.68 1.077v-.609a.24.24 0 0 0-.245-.235h-2.922a.24.24 0 0 0-.245.235v9.376c0 .13.11.235.245.235h3.044a.24.24 0 0 0 .245-.235v-4.639c0-1.563.444-2.172 1.583-2.172 1.241 0 1.339.976 1.339 2.253v4.559c0 .13.11.235.245.235h3.045a.24.24 0 0 0 .245-.235v-5.143c0-2.325-.463-4.701-3.899-4.701z"/></symbol><symbol id="icon-pinterest" viewBox="0 0 32 32"><path d="M21.314 9.64C20.175 8.583 18.6 8 16.877 8c-2.631 0-4.249 1.043-5.143 1.918C10.632 10.997 10 12.429 10 13.847c0 1.781.77 3.148 2.06 3.657a.712.712 0 0 0 .259.052c.272 0 .488-.172.562-.448.044-.159.144-.549.188-.719.094-.335.018-.496-.187-.73-.373-.427-.547-.932-.547-1.589 0-1.952 1.502-4.026 4.287-4.026 2.209 0 3.582 1.215 3.582 3.17 0 1.234-.275 2.376-.774 3.218-.347.584-.956 1.281-1.893 1.281-.405 0-.768-.161-.998-.441a1.081 1.081 0 0 1-.201-.964c.098-.403.233-.824.363-1.231.237-.743.461-1.444.461-2.004 0-.957-.608-1.6-1.514-1.6-1.151 0-2.052 1.13-2.052 2.574 0 .708.194 1.237.282 1.44-.145.594-1.006 4.126-1.17 4.792-.095.389-.664 3.46.278 3.704 1.058.275 2.005-2.716 2.101-3.054.078-.275.351-1.314.518-1.953.511.476 1.334.798 2.134.798 1.509 0 2.866-.657 3.822-1.85.926-1.157 1.437-2.769 1.437-4.54 0-1.384-.615-2.749-1.686-3.744z"/></symbol><symbol id="icon-shopify-logo" viewBox="0 0 112 32"><path fill="var(--color4, #95bf47)" d="M24.039 6.106c0-.155-.155-.232-.232-.232s-2.473-.155-2.473-.155l-1.855-1.855c-.155-.155-.541-.155-.696-.077 0 0-.386.077-.928.309-.541-1.623-1.546-3.092-3.246-3.092h-.155c-.541-.696-1.159-1.005-1.7-1.005-4.019 0-5.952 5.024-6.57 7.575-1.546.464-2.705.85-2.86.85-.85.232-.928.309-1.005 1.082C2.319 10.202 0 27.902 0 27.902l17.855 3.324 9.662-2.087S24.116 6.26 24.039 6.105zM16.85 4.329a6.878 6.878 0 0 0-1.546.464v-.309a7.568 7.568 0 0 0-.386-2.473c.928.155 1.546 1.159 1.932 2.319zm-3.014-2.087c.232.618.386 1.469.386 2.705v.155c-.928.309-2.01.618-3.092 1.005.618-2.319 1.778-3.478 2.705-3.865zm-1.16-1.16c.155 0 .386.077.541.155-1.314.618-2.705 2.164-3.246 5.179-.85.232-1.7.541-2.473.773.618-2.319 2.242-6.106 5.179-6.106z"/><path fill="var(--color5, #5e8e3e)" d="M23.807 5.797c-.077 0-2.473-.155-2.473-.155l-1.855-1.855c-.077-.077-.155-.077-.232-.077l-1.391 27.594 9.662-2.087S24.117 6.26 24.117 6.106c-.077-.155-.232-.232-.309-.309z"/><path fill="var(--color3, #fff)" d="M14.531 11.13l-1.159 3.556s-1.082-.541-2.319-.541c-1.855 0-2.01 1.159-2.01 1.469 0 1.623 4.251 2.242 4.251 6.029 0 3.014-1.855 4.947-4.406 4.947-3.092 0-4.638-1.932-4.638-1.932l.85-2.705s1.623 1.391 2.937 1.391c.928 0 1.237-.696 1.237-1.237 0-2.087-3.478-2.164-3.478-5.643 0-2.937 2.087-5.72 6.338-5.72 1.623-.077 2.396.386 2.396.386zm24.194 6.725c-.928-.541-1.469-.928-1.469-1.546 0-.773.696-1.237 1.778-1.237 1.237 0 2.396.541 2.396.541l.85-2.705s-.773-.618-3.169-.618c-3.324 0-5.642 1.932-5.642 4.56 0 1.546 1.082 2.705 2.473 3.478 1.159.618 1.546 1.159 1.546 1.778 0 .696-.618 1.314-1.623 1.314-1.623 0-3.092-.85-3.092-.85l-.928 2.705s1.391.928 3.71.928c3.401 0 5.874-1.7 5.874-4.715.077-1.7-1.159-2.783-2.705-3.633zm13.603-5.72c-1.7 0-3.014.773-4.019 2.01h-.077l1.469-7.652h-3.787l-3.71 19.401h3.787l1.237-6.647c.464-2.473 1.778-4.019 3.014-4.019.85 0 1.159.618 1.159 1.391 0 .541-.077 1.159-.155 1.7l-1.469 7.575h3.787l1.469-7.884c.155-.85.232-1.778.232-2.473.155-2.087-.928-3.401-2.937-3.401zm11.749 0c-4.638 0-7.652 4.174-7.652 8.734 0 2.937 1.778 5.333 5.256 5.333 4.483 0 7.498-4.019 7.498-8.734 0-2.705-1.546-5.333-5.101-5.333zm-1.932 11.131c-1.314 0-1.855-1.082-1.855-2.473 0-2.164 1.082-5.72 3.169-5.72 1.314 0 1.778 1.159 1.778 2.319.077 2.319-1.082 5.874-3.092 5.874zm16.773-11.131c-2.551 0-4.019 2.242-4.019 2.242h-.077l.232-2.01H71.73a66.932 66.932 0 0 1-.773 5.024l-2.628 13.913h3.787l1.082-5.642h.077s.773.464 2.242.464c4.483 0 7.343-4.56 7.343-9.198 0-2.473-1.159-4.792-3.942-4.792zm-3.633 11.208c-1.005 0-1.546-.541-1.546-.541l.618-3.556c.464-2.396 1.7-3.942 3.014-3.942 1.159 0 1.546 1.082 1.546 2.087-.077 2.396-1.546 5.952-3.633 5.952zM88.271 6.725c-1.237 0-2.164.928-2.164 2.164 0 1.159.696 1.932 1.778 1.932h.077c1.159 0 2.164-.773 2.242-2.164-.077-1.159-.773-1.932-1.932-1.932zM82.937 25.894h3.787l2.551-13.449h-3.787zM98.937 12.444h-2.628l.155-.618c.232-1.314 1.005-2.473 2.242-2.473.696 0 1.237.232 1.237.232l.773-3.014s-.618-.309-2.087-.309c-1.314 0-2.705.386-3.71 1.237-1.314 1.082-1.932 2.705-2.164 4.329l-.077.618H90.9l-.541 2.86h1.778l-2.01 10.589h3.787l2.01-10.589h2.628l.386-2.86zm9.198 0s-2.396 5.952-3.401 9.275h-.077c-.077-1.082-.928-9.275-.928-9.275H99.71l2.319 12.367c.077.232 0 .464-.077.618-.464.85-1.159 1.7-2.087 2.319-.696.541-1.546.85-2.164 1.082l1.082 3.246c.773-.155 2.396-.773 3.71-2.087 1.7-1.623 3.324-4.097 4.947-7.498l4.638-9.971h-3.942z"/></symbol><symbol id="icon-twitter" viewBox="0 0 32 32"><path d="M24.078 10.545a6.585 6.585 0 0 1-1.894.519 3.313 3.313 0 0 0 1.45-1.824 6.648 6.648 0 0 1-2.096.801 3.298 3.298 0 0 0-5.62 3.007A9.367 9.367 0 0 1 9.12 9.602a3.298 3.298 0 0 0 1.021 4.403 3.298 3.298 0 0 1-1.494-.414v.041a3.301 3.301 0 0 0 2.645 3.234 3.356 3.356 0 0 1-.869.116c-.213 0-.419-.021-.621-.061a3.3 3.3 0 0 0 3.08 2.291 6.618 6.618 0 0 1-4.096 1.41c-.266 0-.528-.016-.787-.045a9.327 9.327 0 0 0 5.056 1.484c6.067 0 9.384-5.025 9.384-9.384l-.011-.427a6.585 6.585 0 0 0 1.65-1.704z"/><path d="M25 11.013a6.977 6.977 0 0 1-2.002.549 3.5 3.5 0 0 0 1.533-1.928 7.06 7.06 0 0 1-2.216.847 3.488 3.488 0 0 0-5.943 3.179 9.903 9.903 0 0 1-7.188-3.644 3.457 3.457 0 0 0-.472 1.753c0 1.21.616 2.278 1.551 2.902a3.48 3.48 0 0 1-1.58-.438v.044a3.492 3.492 0 0 0 2.797 3.42c-.292.079-.6.122-.919.122-.225 0-.443-.022-.656-.065a3.49 3.49 0 0 0 3.257 2.422 6.995 6.995 0 0 1-4.331 1.49c-.281 0-.559-.017-.832-.048a9.86 9.86 0 0 0 5.345 1.569c6.415 0 9.922-5.314 9.922-9.922l-.012-.451a6.966 6.966 0 0 0 1.744-1.802z"/></symbol><symbol id="icon-youtube" viewBox="0 0 32 32"><path d="M21.262 10H10.739c-2.065 0-3.738 1.708-3.738 3.815v5.369c0 2.107 1.674 3.815 3.738 3.815h10.523c2.065 0 3.738-1.708 3.738-3.815v-5.369C25 11.708 23.326 10 21.262 10zm-2.368 6.74l-4.628 2.241a.186.186 0 0 1-.266-.17v-4.622c0-.141.146-.232.27-.168l4.628 2.381a.19.19 0 0 1-.004.339z"/></symbol><symbol id="icon-arrow" viewBox="0 0 32 32"><path fill="var(--color1, #1a81c5)" opacity=".9" d="M19.571 15.891l-6.034 6.034a.8.8 0 0 0 0 1.131l.189.189a.8.8 0 0 0 1.131 0l6.788-6.788a.798.798 0 0 0 0-1.132l-6.788-6.788a.8.8 0 0 0-1.131 0l-.189.189a.8.8 0 0 0 0 1.131l6.034 6.034z"/></symbol><symbol id="icon-loop" viewBox="0 0 32 32"><path d="M19.512 21.392a8 8 0 1 1 1.414-1.414l4.087 4.087a.999.999 0 1 1-1.414 1.414l-4.087-4.087zm-.663-2.078a6 6 0 1 0-8.485-8.485 6 6 0 0 0 8.485 8.485z"/></symbol><symbol id="icon-search" viewBox="0 0 32 32"><path d="M7.172 16.18a8.001 8.001 0 0 1 1-15.937 8 8 0 0 1 1 15.938v5.78a1 1 0 1 1-2 0v-5.78zm1-1.937a6 6 0 1 0 0-12 6 6 0 0 0 0 12z" transform="rotate(-45 19.632 3.89)"/></symbol><symbol id="icon-oberlo-logo" viewBox="0 0 131 32"><path fill="var(--color1, #27b7d7)" d="M27.2 32H4.8C2.165 32 0 29.835 0 27.2V4.8C0 2.165 2.165 0 4.8 0h22.4C29.835 0 32 2.165 32 4.8v22.4c0 2.635-2.165 4.8-4.8 4.8z"/><path fill="var(--color2, #2e4257)" d="M122.824 23.153c-2.635 0-4.8-2.165-4.8-4.8s2.165-4.8 4.8-4.8 4.8 2.165 4.8 4.8-2.165 4.8-4.8 4.8zm0-12.8c-4.424 0-8 3.576-8 8s3.576 8 8 8c4.424 0 8-3.576 8-8s-3.576-8-8-8zM70.118 23.247c-2.635 0-4.8-2.071-4.8-4.706s2.165-4.706 4.8-4.706 4.8 2.071 4.8 4.706-2.165 4.706-4.8 4.706zm.282-12.612c-1.976 0-3.671.753-5.082 1.882V5.646h-3.2V26.07h3.2v-1.6c1.318 1.224 3.106 1.882 5.082 1.882 4.235 0 7.718-3.482 7.718-7.906s-3.482-7.812-7.718-7.812zM109.176 26.353H112V5.647h-2.824zM102.118 10.635h-3.294v15.718h3.294v-7.906a4.86 4.86 0 0 1 4.894-4.894h.282v-3.2c-1.976 0-3.765.753-5.176 1.976v-1.694zm-18.73 6.4c.565-1.976 2.447-3.482 4.612-3.482s4.047 1.506 4.612 3.482h-9.224zM88 10.353c-4.424 0-8 3.576-8 8s3.576 8 8 8c3.2 0 5.929-1.882 7.247-4.518h-3.953c-.847.847-2.071 1.318-3.294 1.318-2.165 0-4.047-1.506-4.612-3.482h12.518c.094-.376.094-.847.094-1.318 0-4.424-3.576-8-8-8zM49.412 23.812c-4.047 0-7.341-3.294-7.341-7.341s3.294-7.341 7.341-7.341 7.341 3.294 7.341 7.341-3.294 7.341-7.341 7.341zm0-18.165c-6.024 0-10.824 4.8-10.824 10.824s4.8 10.824 10.824 10.824 10.824-4.8 10.824-10.824-4.8-10.824-10.824-10.824z"/><path fill="var(--color3, #fff)" d="M13.459 18.918c-1.318 0-2.353-1.129-2.353-2.447s1.035-2.447 2.353-2.447 2.353 1.129 2.353 2.447-1.035 2.447-2.353 2.447zm9.6-9.506h-9.412a4.776 4.776 0 0 0-3.388 1.412L6.4 14.683c-.941.941-.941 2.541 0 3.482l3.859 3.859c.941.941 2.071 1.412 3.388 1.412h9.412c1.318 0 2.353-1.129 2.353-2.447v-9.224c0-1.224-1.035-2.353-2.353-2.353z"/></symbol><symbol id="icon-close" viewBox="0 0 32 32"><path fill="none" stroke="#818D9A" stroke-width="2" d="M15.645 15.993l6.01-6.01-6.01 6.01 6.01 6.01-6.01-6.01-6.01 6.01 6.01-6.01-6.01-6.01 6.01 6.01z"/></symbol><symbol id="icon-globe" viewBox="197.3 314.6 90.6 90.6"><path d="M287.9 359.9c0 25-20.2 45.3-45.3 45.3s-45.3-20.2-45.3-45.3 20.2-45.3 45.3-45.3 45.3 20.3 45.3 45.3zm-22.7 13.2c0-7.3-5.9-13.2-13.2-13.2h-7.5c-5.7 0-9.4-2.8-9.4-6.6 0-2.6 2.1-4.7 4.7-4.7 3.8 0 3.9 3.8 6.6 3.8 2.1 0 3.8-1.7 3.8-3.8 0-3.7-1.8-5.6-3.6-7.3 1-2 3.5-7.2 3.6-14.8 0-.9-.6-1.8-1.6-1.9-2-.3-4-.5-6-.5-15.9.5-26.4 8.1-26.4 20.7 0 11.3 9.4 20.7 20.7 20.7h.3c-.2.9-.3 1.9-.3 2.8 0 5.8 4 10.7 9.4 11.9v13.5c0 1 .8 1.9 1.9 1.9 5.7.2 17-9.3 17-22.5z"/></symbol><symbol id="icon-dropdown-arrow" viewBox="0 0 10 5"><path d="M0 0l5 5 5-5H0z"/></symbol><symbol id="icon-show-forbes" viewBox="0 0 38.66 9.69"><path d="M23.55 2.76a3.14 3.14 0 0 0-1.6.4C22 1.73 22 .44 22 0l-3 .53V.8h.31c.4.09.54.32.62.85.07 1.11.07 6.79.07 7.73a11.47 11.47 0 0 0 2.49.31 3.5 3.5 0 0 0 3.78-3.78 2.86 2.86 0 0 0-2.72-3.15zm-1 6.44a2.16 2.16 0 0 1-.53 0c-.02-.67-.11-3.29-.02-5.6a2 2 0 0 1 .67-.13c1 0 1.51 1.15 1.51 2.57-.05 1.78-.71 3.16-1.65 3.16zM7.82.18H0v.4h.44c.58.09.8.45.89 1.29a49.94 49.94 0 0 1 0 5.87C1.24 8.62 1 9 .44 9.07L0 9.16v.35h5v-.35l-.53-.09c-.58-.05-.8-.45-.89-1.29 0-.58-.09-1.51-.09-2.67h1.07c.66 0 1 .53 1.11 1.28h.4v-3.1h-.4c-.12.71-.43 1.29-1.09 1.29H3.51c0-1.51.05-2.93.09-3.78h1.55C6.36.84 7 1.6 7.42 2.93l.45-.13V.18z" fill="#818d9a"/><path d="M10.35 2.67a3.17 3.17 0 0 1 3.34 3.51 3.33 3.33 0 0 1-3.47 3.51C8 9.69 6.89 8.18 6.89 6.18a3.32 3.32 0 0 1 3.46-3.51zm-.13.44C9.24 3.11 9 4.44 9 6.18s.44 3.06 1.33 3.06 1.27-1.33 1.27-3.06-.44-3.07-1.38-3.07zM26.8 6.22a3.34 3.34 0 0 1 3.42-3.55C32.09 2.67 33 4 33 5.87h-4.16c0 1.64.76 2.84 2.36 2.84a2.28 2.28 0 0 0 1.51-.49l.18.22a3.44 3.44 0 0 1-6.09-2.22zm2-.84h2.09c0-.89-.13-2.22-.89-2.22s-1.15 1.25-1.2 2.27zM38.26 3a5.45 5.45 0 0 0-2-.35c-1.64 0-2.67 1-2.67 2.13s.76 1.64 1.83 2S36.8 7.51 36.8 8a1 1 0 0 1-1.11 1c-.85 0-1.47-.49-2-1.83l-.31.09v2a7.16 7.16 0 0 0 2.36.4c1.73 0 2.84-.89 2.84-2.27 0-.93-.48-1.46-1.64-1.91s-1.69-.8-1.69-1.38a.92.92 0 0 1 .94-1c.8 0 1.33.48 1.73 1.68l.31-.08.03-1.7zm-18.79-.16c-.76-.44-2.09-.22-2.8 1.38V2.67l-3 .57v.27l.31.05c.4 0 .58.26.63.84a38.4 38.4 0 0 1 0 3.87c-.05.53-.23.8-.63.84l-.31.05v.35h4.14v-.35l-.54-.05c-.44 0-.58-.31-.62-.84a30.33 30.33 0 0 1 0-3.6 1.71 1.71 0 0 1 2.08 0z" fill="#818d9a"/></symbol><symbol id="icon-show-huffpo" viewBox="0 0 59.42 6.95"><path id="_Path_" data-name="&lt;Path&gt;" d="M7.68 6.81h2.17L11 .15H8.85l-.43 2.38H6.54L7 .15H4.79L3.63 6.81H5.8l.44-2.49h1.88z" fill="#818d9a"/><path id="_Path_2" data-name="&lt;Path&gt;" d="M12.25.14l-.66 3.71a4 4 0 0 0-.09.83c0 2 1.72 2.26 2.75 2.26 2.16 0 3.1-.72 3.43-2.66l.73-4.15h-2.17l-.62 3.48c-.2 1.09-.34 1.66-1.15 1.66-.52 0-.78-.28-.78-.86a4.18 4.18 0 0 1 .1-.83l.63-3.45h-2.17z" fill="#818d9a"/><path d="M29.88 6.81h2.17l.3-1.72h1a2.63 2.63 0 0 0 2.97-2.89c0-1.31-.91-2.06-2.5-2.06H31zm3.38-3.36h-.62l.28-1.57h.59c.48 0 .73.24.73.68a.87.87 0 0 1-.98.89zM40.53 0c-2.36 0-3.77 1.53-3.77 4.09a2.69 2.69 0 0 0 3 2.86c2.36 0 3.78-1.53 3.78-4.09A2.69 2.69 0 0 0 40.53 0zm-.63 5.22c-.56 0-.89-.4-.89-1.08a3.61 3.61 0 0 1 .07-.73c.16-.88.45-1.68 1.33-1.68.56 0 .89.41.89 1.08a4.63 4.63 0 0 1-.07.74c-.17.86-.45 1.67-1.33 1.67z" fill="#818d9a"/><path id="_Path_3" data-name="&lt;Path&gt;" d="M51.09 6.81h2.17l.85-4.88h1.64l.31-1.78h-5.55l-.32 1.78h1.74z" fill="#818d9a"/><path id="_Path_4" data-name="&lt;Path&gt;" d="M47.49 2.61c-.69-.22-1-.31-1-.63s.14-.47.56-.47a.69.69 0 0 1 .66.43l1.91-.52c-.19-.94-1-1.42-2.4-1.42-2.62 0-2.83 1.76-2.83 2.29 0 1.09.58 1.76 1.84 2.11.33.09.71.19.71.55s-.22.47-.59.47a.89.89 0 0 1-.83-.54l-1.89.51c.21 1 1.14 1.55 2.6 1.55 1.12 0 3-.3 3-2.31-.01-1.01-.58-1.63-1.74-2.02z" fill="#818d9a"/><path id="_Path_5" data-name="&lt;Path&gt;" d="M2.42 6.81L3.59.15H0v6.66z" fill="#818d9a"/><path id="_Path_6" data-name="&lt;Path&gt;" d="M57 .15l-1.17 6.66h3.59V.15z" fill="#818d9a"/><path id="_Path_7" data-name="&lt;Path&gt;" fill="#818d9a" d="M19.65.14l-1.17 6.67h2.17L21 4.84h1.82l.3-1.67H21.3l.2-1.24h2.55l.32-1.79h-4.72z"/><path id="_Path_8" data-name="&lt;Path&gt;" fill="#818d9a" d="M25.34.14l-1.16 6.67h2.17l.34-1.97h1.83l.3-1.67h-1.83l.21-1.24h2.55l.31-1.79h-4.72z"/></symbol><symbol id="icon-show-tnw" viewBox="0 0 41.14 9.97"><path fill="#818d9a" fill-rule="evenodd" d="M8.73 3.74V0H0v3.74h2.49v6.23h3.74V3.74h2.5zM37.4 0v3.24a1.77 1.77 0 0 1-.4 1.12L35.53 5.8a1.51 1.51 0 0 1-1.12.43h-1.56a3.15 3.15 0 0 0 .81-2.05V0h-3.74v3.24a1.77 1.77 0 0 1-.44 1.12L28.05 5.8a1.51 1.51 0 0 1-1.12.43h-.75V0h-3.74v10h5.42A2.93 2.93 0 0 0 30 9l1.75-1.75V10h3.55a3 3 0 0 0 2.23-1l2.68-2.68a2.93 2.93 0 0 0 .93-2.18V0zM21.19 10h-3.74V6.73A1.79 1.79 0 0 0 17 5.61l-1.42-1.43a1.77 1.77 0 0 0-1.12-.44h-.75V10H10V0h5.4a2.9 2.9 0 0 1 2.18.94l2.68 2.68a2.93 2.93 0 0 1 .93 2.18V10z"/></symbol><symbol id="icon-show-shopify" viewBox="0 0 45.5 13"><path id="s_2_" class="st0" d="M15.7 7.2c-.4-.2-.6-.4-.6-.6 0-.3.3-.5.7-.5.5 0 1 .2 1 .2l.4-1.1s-.3-.3-1.3-.3c-1.3 0-2.3.8-2.3 1.9 0 .6.4 1.1 1 1.4.5.3.6.5.6.7 0 .3-.2.5-.7.5-.6 0-1.3-.3-1.3-.3l-.4 1.1s.6.4 1.5.4c1.4 0 2.4-.7 2.4-1.9.1-.7-.4-1.1-1-1.5z"/><path id="h_2_" class="st0" d="M21.3 4.9c-.7 0-1.2.3-1.6.8l.6-3.1h-1.5l-1.5 7.9h1.5l.5-2.7c.2-1 .7-1.6 1.2-1.6.3 0 .5.2.5.6 0 .2 0 .5-.1.7l-.6 3.1h1.5l.6-3.2c.1-.3.1-.7.1-1 0-.9-.4-1.5-1.2-1.5z"/><path id="o_1_" class="st0" d="M26 4.9c-1.9 0-3.1 1.7-3.1 3.5 0 1.2.7 2.2 2.1 2.2 1.8 0 3.1-1.6 3.1-3.5 0-1.1-.7-2.2-2.1-2.2zm-.8 4.5c-.5 0-.7-.4-.7-1 0-.9.5-2.3 1.3-2.3.5 0 .7.5.7.9 0 1-.4 2.4-1.3 2.4z"/><path id="p_1_" class="st0" d="M32 4.9c-1 0-1.6.9-1.6.9l.1-.8h-1.4c-.1.6-.2 1.4-.3 2l-1.1 5.6h1.5l.4-2.3s.3.2.9.2c1.8 0 3-1.9 3-3.7.1-.9-.3-1.9-1.5-1.9zm-1.4 4.6c-.4 0-.6-.2-.6-.2l.3-1.4c.2-1 .7-1.6 1.2-1.6s.6.4.6.8c-.1.9-.7 2.4-1.5 2.4z"/><path id="dot_2_" class="st0" d="M35.8 2.7c-.5 0-.9.4-.9.9s.3.8.7.8c.5 0 .9-.3.9-.9.1-.5-.2-.8-.7-.8z"/><path id="i_2_" class="st0" d="M33.7 10.5h1.5l1.1-5.4h-1.6z"/><path id="f_2_" class="st0" d="M40.2 5h-1.1l.1-.3c.1-.5.4-1 .9-1 .3 0 .5.1.5.1l.3-1.2s-.3-.1-.8-.1-1.1.2-1.5.5c-.5.4-.8 1.1-.9 1.7V5H37l-.2 1.2h.7l-.8 4.3h1.5l.8-4.3h1l.2-1.2z"/><path id="y_2_" class="st0" d="M43.9 5.1s-1 2.4-1.4 3.8c0-.4-.4-3.8-.4-3.8h-1.6l.9 5v.3c-.2.3-.5.7-.8.9-.3.2-.6.3-.9.4l.4 1.3c.3-.1 1-.3 1.5-.8.7-.7 1.4-1.7 2-3.1l1.9-4h-1.6z"/><g><path class="st0" d="M7.3 12.7l3.8-.8S9.7 2.6 9.7 2.5c0-.1-.1-.1-.1-.1l-1-.1s-.6-.7-.7-.8h-.1l-.5 11.2zM7.7 1.5c-.1 0-.1 0 0 0 0 0-.2.1-.4.1C7 1 6.6.4 5.9.4h-.1C5.6.1 5.4 0 5.2 0 3.6 0 2.8 2 2.5 3.1c-.6.2-1.1.3-1.1.3-.4.2-.4.2-.4.5s-1 7.4-1 7.4l7.2 1.3.5-11.1zM5.8 2s0 .1 0 0c-.4.2-.8.3-1.3.5.2-.9.7-1.4 1.1-1.6.1.3.2.6.2 1.1zM5.1.4c.1 0 .1 0 .2.1-.5.3-1 .9-1.3 2.1-.3.1-.7.2-1 .3C3.3 2 4 .4 5.1.4zM5.4 6s-.4-.2-.9-.2c-.8 0-.8.5-.8.6 0 .7 1.7.9 1.7 2.4 0 1.2-.8 2-1.8 2-1.2 0-1.9-.8-1.9-.8L2 8.9s.7.6 1.2.6c.4 0 .5-.3.5-.5 0-.9-1.4-.9-1.4-2.3 0-1.2.9-2.3 2.6-2.3.7 0 1 .2 1 .2L5.4 6zM6.1.8c.4 0 .6.5.8.9-.2.1-.5.2-.7.2v-.1c0-.4 0-.7-.1-1z"/></g></symbol><symbol id="icon-show-wired" viewBox="0 0 63.25 12.65"><path d="M22 9.24v1.45h-6V9.24h2.17V3.41H16V2h6v1.41h-2.18v5.83zM11.75 2h-1.66l-1.2 6.87-1.4-6.41c-.09-.43-.23-.54-.65-.54h-.91c-.4 0-.56.11-.64.54L3.9 8.87 2.69 2H.9l1.72 8.3c.07.36.2.45.6.45H4.4c.4 0 .54-.09.61-.47l1.3-6 1.3 6c.09.38.21.47.61.47h1.19c.42 0 .54-.09.61-.45zm.9 10.69H0V0h12.65zm20.86-4.23a18.58 18.58 0 0 0 .16 2.23h1.73c0-.47-.1-1.25-.14-2.35s-.45-1.5-1.35-1.67c1-.16 1.44-.64 1.44-2.19 0-1.28-.21-1.75-.55-2.09S34.09 2 33.41 2h-5.32v8.71h1.8V7.3h2.5c.52 0 .73 0 .86.17s.25.29.26 1m-3.62-2.6V3.45h2.86c.4 0 .52 0 .59.1s.24.31.24 1.08-.12 1-.26 1.12-.19.12-.59.12zM38 12.65H25.3V0H38zM53.39 2v8.73h4.3a3.4 3.4 0 0 0 2.44-.64c.54-.47.92-1.56.92-3.71s-.29-3.17-.92-3.71A3.22 3.22 0 0 0 57.69 2h-4.3zm5.88 4.37c0 1.87-.16 2.35-.49 2.61s-.57.26-1.21.26h-2.38V3.45h2.38c.66 0 .93 0 1.21.26s.49.74.49 2.63m4 6.31H50.6V0h12.65zm-23-9.24V2h7.44v2.77h-1.56V3.41h-3v2.08h2.39V6.9h-2.41v2.34h3.09V7.71h1.57v3h-7.52V9.24h1.18V3.41z" fill="#818d9a"/></symbol><symbol id="home-intro-1" viewBox="0 0 64 64"><path id="_Rectangle_" d="M10 0h42c5.52 0 10 4.48 10 10v42c0 5.52-4.48 10-10 10H10C4.48 62 0 57.52 0 52V10C0 4.48 4.48 0 10 0z" fill="#27b7d8"/><path id="_Path_" d="M45 44.27v-18c0-1.25-.49-2.46-1.37-3.35l-9.33-9.54a4.641 4.641 0 0 0-6.56-.04l-.04.04-9.33 9.51A4.77 4.77 0 0 0 17 26.24v18A4.695 4.695 0 0 0 21.64 49h18.69c2.6-.02 4.69-2.13 4.67-4.73 0 0 0 0 0 0z" fill="none" stroke="#fff" stroke-width="2" stroke-linecap="round" stroke-miterlimit="10"/><circle id="_Path_2" cx="31" cy="25" r="4" fill="none" stroke="#fff" stroke-width="2" stroke-linecap="round" stroke-miterlimit="10"/><path id="_Path_3" fill="none" stroke="#fff" stroke-width="2" stroke-linecap="round" stroke-miterlimit="10" d="M26 38l5.11 4.61"/><path id="_Path_4" fill="none" stroke="#fff" stroke-width="2" stroke-linecap="round" stroke-miterlimit="10" d="M36 38l-4.89 4.61"/><path id="_Path_5" fill="none" stroke="#fff" stroke-width="2" stroke-linecap="round" stroke-miterlimit="10" d="M31 42v-8"/></symbol><symbol id="home-intro-2" viewBox="0 0 64 64"><path id="_Rectangle_" d="M10 0h42c5.52 0 10 4.48 10 10v42c0 5.52-4.48 10-10 10H10C4.48 62 0 57.52 0 52V10C0 4.48 4.48 0 10 0z" fill="#27b7d8"/><circle id="_Path_" cx="31" cy="32.31" r="2.79" fill="none" stroke="#fff" stroke-width="2" stroke-linecap="round" stroke-miterlimit="10"/><circle id="_Path_2" cx="31" cy="32.31" r="16.76" fill="none" stroke="#fff" stroke-width="2" stroke-linecap="round" stroke-miterlimit="10"/><path id="_Path_3" fill="none" stroke="#fff" stroke-width="2" stroke-linecap="round" stroke-miterlimit="10" d="M31 15.54v-3.72"/><path id="_Path_4" fill="none" stroke="#fff" stroke-width="2" stroke-linecap="round" stroke-miterlimit="10" d="M31 15.54v2.8"/><path id="_Path_5" fill="none" stroke="#fff" stroke-width="2" stroke-linecap="round" stroke-miterlimit="10" d="M31 46.27v2.8"/><path id="_Path_6" fill="none" stroke="#fff" stroke-width="2" stroke-linecap="round" stroke-miterlimit="10" d="M49 33.37h-3"/><path id="_Path_7" fill="none" stroke="#fff" stroke-width="2" stroke-linecap="round" stroke-miterlimit="10" d="M16 33.37h-3"/><path id="_Path_8" fill="none" stroke="#fff" stroke-width="2" stroke-linecap="round" stroke-miterlimit="10" d="M31 29.51v-6.52"/><path id="_Path_9" fill="none" stroke="#fff" stroke-width="2" stroke-linecap="round" stroke-miterlimit="10" d="M33.79 32.31h3.73"/></symbol><symbol id="home-intro-3" viewBox="0 0 64 64"><path id="_Rectangle_" d="M10 0h42c5.52 0 10 4.48 10 10v42c0 5.52-4.48 10-10 10H10C4.48 62 0 57.52 0 52V10C0 4.48 4.48 0 10 0z" fill="#27b7d8"/><circle id="_Path_" cx="32.18" cy="31.37" r="4.66" fill="none" stroke="#fff" stroke-width="2" stroke-linecap="round" stroke-miterlimit="10"/><path id="_Path_2" d="M45.6 21a4.67 4.67 0 0 1-6.06-2.6" fill="none" stroke="#fff" stroke-width="2" stroke-linecap="round" stroke-miterlimit="10"/><path id="_Path_3" d="M46.45 35.71c-.95-2.39.21-5.1 2.6-6.05" fill="none" stroke="#fff" stroke-width="2" stroke-linecap="round" stroke-miterlimit="10"/><path id="_Path_4" d="M17.9 27c.95 2.38-.2 5.09-2.59 6.05h-.01" fill="none" stroke="#fff" stroke-width="2" stroke-linecap="round" stroke-miterlimit="10"/><path id="_Path_5" d="M18.76 41.75c2.37-.92 5.05.24 6 2.6" fill="none" stroke="#fff" stroke-width="2" stroke-linecap="round" stroke-miterlimit="10"/><path id="_Rectangle_2" d="M10.89 26.07l33.07-13.2c1.03-.41 2.19.09 2.6 1.12l8.02 20.09c.41 1.03-.09 2.19-1.12 2.6l-33.07 13.2c-1.03.41-2.19-.09-2.6-1.12L9.77 28.67c-.41-1.03.09-2.19 1.12-2.6z" fill="none" stroke="#fff" stroke-width="2" stroke-linecap="round" stroke-miterlimit="10"/><path id="_Path_6" fill="none" stroke="#fff" stroke-width="2" stroke-linecap="round" stroke-miterlimit="10" d="M36.51 29.65l3.24-1.3"/><path id="_Path_7" fill="none" stroke="#fff" stroke-width="2" stroke-linecap="round" stroke-miterlimit="10" d="M24.6 34.4l3.25-1.3"/><path id="_Path_8" d="M49 43v2c0 1.1-.9 2-2 2h-9" fill="none" stroke="#fff" stroke-width="2" stroke-linecap="round" stroke-miterlimit="10"/><path id="_Path_9" d="M14 20v-2c0-1.1.9-2 2-2h8" fill="none" stroke="#fff" stroke-width="2" stroke-linecap="round" stroke-miterlimit="10"/></symbol><symbol id="feature-1" viewBox="0 0 64 64"><path id="_Rectangle_" d="M11 1h42c5.52 0 10 4.48 10 10v42c0 5.52-4.48 10-10 10H11C5.48 63 1 58.52 1 53V11C1 5.48 5.48 1 11 1z" opacity=".5" fill="none" stroke="#cfdde1" stroke-width="2" stroke-miterlimit="10"/><path id="_Path_" d="M50 25H38v-6c0-2.21 1.79-4 4-4h4c2.21 0 4 1.79 4 4v6z" fill="none" stroke="#27b7d8" stroke-width="2" stroke-linecap="round" stroke-miterlimit="10"/><path id="_Path_2" d="M49 42.51l-3.33 6c-.62.92-1.86 1.16-2.78.54-.22-.14-.4-.33-.54-.54l-3.33-6c-.65-.99-1-2.15-1-3.33V25H50v14.18c0 1.18-.35 2.34-1 3.33z" fill="none" stroke="#27b7d8" stroke-width="2" stroke-linecap="round" stroke-miterlimit="10"/><path id="_Path_3" fill="none" stroke="#27b7d8" stroke-width="2" stroke-linecap="round" stroke-miterlimit="10" d="M50 25h2"/><path id="_Path_4" fill="none" stroke="#27b7d8" stroke-width="2" stroke-linecap="round" stroke-miterlimit="10" d="M36 25h2"/><path id="_Path_5" d="M31 24c0-3.34-1.67-6.45-4.44-8.31a.999.999 0 0 0-1.56.84l-.83 8.66c-.1 1.03-.97 1.81-2 1.81h-2.35c-1.03 0-1.9-.78-2-1.81L17 16.47a.988.988 0 0 0-.98-1.01c-.2 0-.4.05-.57.16A10.158 10.158 0 0 0 11 24c0 3.97 2.36 7.57 6 9.16V45c0 2.21 1.79 4 4 4h0c2.21 0 4-1.79 4-4V33.16c3.64-1.59 6-5.19 6-9.16z" fill="none" stroke="#27b7d8" stroke-width="2" stroke-linecap="round" stroke-miterlimit="10"/><path id="_Path_6" d="M40.84 44.9c1.94-1.2 4.38-1.2 6.32 0" fill="none" stroke="#27b7d8" stroke-width="2" stroke-linecap="round" stroke-miterlimit="10"/><path id="_Path_7" d="M37.9 39.52a12.98 12.98 0 0 1 12.1-.05" fill="none" stroke="#27b7d8" stroke-width="2" stroke-linecap="round" stroke-miterlimit="10"/></symbol><symbol id="feature-2" viewBox="0 0 64 64"><circle id="_Path_" cx="33.18" cy="32.37" r="4.66" fill="none" stroke="#27b7d8" stroke-width="2" stroke-linecap="round" stroke-miterlimit="10"/><path id="_Path_2" d="M46.6 22a4.67 4.67 0 0 1-6.06-2.6" fill="none" stroke="#27b7d8" stroke-width="2" stroke-linecap="round" stroke-miterlimit="10"/><path id="_Path_3" d="M47.45 36.71c-.95-2.39.21-5.1 2.6-6.05" fill="none" stroke="#27b7d8" stroke-width="2" stroke-linecap="round" stroke-miterlimit="10"/><path id="_Path_4" d="M18.9 28c.95 2.38-.2 5.09-2.59 6.05h-.01" fill="none" stroke="#27b7d8" stroke-width="2" stroke-linecap="round" stroke-miterlimit="10"/><path id="_Path_5" d="M19.76 42.75c2.37-.92 5.05.24 6 2.6" fill="none" stroke="#27b7d8" stroke-width="2" stroke-linecap="round" stroke-miterlimit="10"/><path id="_Rectangle_" d="M11 1h42c5.52 0 10 4.48 10 10v42c0 5.52-4.48 10-10 10H11C5.48 63 1 58.52 1 53V11C1 5.48 5.48 1 11 1z" opacity=".5" fill="none" stroke="#cfdde1" stroke-width="2" stroke-miterlimit="10"/><path id="_Rectangle_2" d="M11.89 27.07l33.07-13.2c1.03-.41 2.19.09 2.6 1.12l8.02 20.09c.41 1.03-.09 2.19-1.12 2.6l-33.07 13.2c-1.03.41-2.19-.09-2.6-1.12l-8.02-20.09c-.41-1.03.09-2.19 1.12-2.6z" fill="none" stroke="#27b7d8" stroke-width="2" stroke-linecap="round" stroke-miterlimit="10"/><path id="_Path_6" fill="none" stroke="#27b7d8" stroke-width="2" stroke-linecap="round" stroke-miterlimit="10" d="M37.51 30.65l3.24-1.3"/><path id="_Path_7" fill="none" stroke="#27b7d8" stroke-width="2" stroke-linecap="round" stroke-miterlimit="10" d="M25.6 35.4l3.25-1.3"/><path id="_Path_8" d="M50 44v2c0 1.1-.9 2-2 2h-9" fill="none" stroke="#27b7d8" stroke-width="2" stroke-linecap="round" stroke-miterlimit="10"/><path id="_Path_9" d="M15 21v-2c0-1.1.9-2 2-2h8" fill="none" stroke="#27b7d8" stroke-width="2" stroke-linecap="round" stroke-miterlimit="10"/></symbol><symbol id="feature-3" viewBox="0 0 64 64"><path id="_Rectangle_" d="M11 1h42c5.52 0 10 4.48 10 10v42c0 5.52-4.48 10-10 10H11C5.48 63 1 58.52 1 53V11C1 5.48 5.48 1 11 1z" opacity=".5" fill="none" stroke="#cfdde1" stroke-width="2" stroke-miterlimit="10"/><path id="_Path_" d="M46 14.19L11.52 28.43a2.069 2.069 0 0 0 .14 3.81l9.19 3.89 5.54 13.47c.04.55.52.97 1.07.93.24-.02.47-.12.64-.3l4.57-8.49 11.25 5.67c1.66.88 3.31.22 3.4-1.48L49 16.17a2.07 2.07 0 0 0-3-1.98z" fill="none" stroke="#27b7d8" stroke-width="2" stroke-linecap="round" stroke-linejoin="round"/><path id="_Path_2" fill="none" stroke="#27b7d8" stroke-width="2" stroke-linecap="round" stroke-linejoin="round" d="M20.85 36.13l27.48-21.59"/><path id="_Path_3" fill="none" stroke="#27b7d8" stroke-width="2" stroke-linecap="round" stroke-linejoin="round" d="M47.97 14.28l-15.3 27.46"/></symbol><symbol id="feature-4" viewBox="0 0 64 64"><path d="M32 31.08h.23a6.78 6.78 0 0 0 5.17-2.24c2.83-3.18 2.36-8.64 2.31-9.16-.19-3.91-2-5.78-3.56-6.65a8.107 8.107 0 0 0-4-1h-.12c-1.4-.01-2.77.33-4 1-1.54.87-3.42 2.74-3.6 6.68-.05.52-.52 6 2.3 9.16A6.744 6.744 0 0 0 32 31.08zM47.56 32.75h.11c.94.02 1.85-.37 2.48-1.07 1.35-1.52 1.13-4.13 1.1-4.38a3.59 3.59 0 0 0-1.7-3.19c-.58-.32-1.23-.49-1.89-.49h-.06c-.66 0-1.31.16-1.89.48-1.11.68-1.76 1.9-1.71 3.2 0 .25-.25 2.86 1.1 4.38.63.7 1.53 1.09 2.46 1.07h0zM26.89 33.86a20.066 20.066 0 0 1-5.71 2.6h-.07c-3 1-3.07 4.2-3.11 5.56v.17h0c-.04 1.05.07 2.1.34 3.11.07.18.19.33.36.43.2.14 5.15 3.29 13.42 3.29s13.21-3.16 13.41-3.29c.16-.1.29-.25.36-.43.26-1.01.37-2.06.34-3.1h0v-.18c0-1.36-.13-4.54-3.11-5.56h-.07c-2.03-.56-3.95-1.43-5.7-2.6" fill="none" stroke="#27b7d8" stroke-width="2" stroke-linecap="round" stroke-miterlimit="10"/><path id="_Rectangle_" d="M11 1h42c5.52 0 10 4.48 10 10v42c0 5.52-4.48 10-10 10H11C5.48 63 1 58.52 1 53V11C1 5.48 5.48 1 11 1z" opacity=".5" fill="none" stroke="#cfdde1" stroke-width="2" stroke-miterlimit="10"/><path d="M16.55 32.79h.11c.94.03 1.85-.36 2.48-1.07 1.35-1.52 1.12-4.13 1.1-4.38a3.59 3.59 0 0 0-1.7-3.19c-.58-.32-1.23-.49-1.89-.49h-.06c-.66 0-1.31.16-1.89.48-1.11.68-1.76 1.9-1.7 3.2 0 .25-.25 2.86 1.1 4.38.62.71 1.53 1.1 2.47 1.07h-.02z" fill="none" stroke="#27b7d8" stroke-width="2" stroke-linecap="round" stroke-miterlimit="10"/><path d="M51.14 40.51c0-3.58-1.23-4.1-1.23-4.1M14.18 36.45S13 37 13 40.55" fill="none" stroke="#27b7d8" stroke-width="2" stroke-linecap="round" stroke-linejoin="round"/></symbol><symbol id="feature-5" viewBox="0 0 64 64"><path id="_Rectangle_" d="M11 1h42c5.52 0 10 4.48 10 10v42c0 5.52-4.48 10-10 10H11C5.48 63 1 58.52 1 53V11C1 5.48 5.48 1 11 1z" opacity=".5" fill="none" stroke="#cfdde1" stroke-width="2" stroke-miterlimit="10"/><path d="M23.08 47.17v-5A2.11 2.11 0 0 0 21 40.1h-3.89c-1.17 0-2.11.94-2.11 2.11h0v5m20.56 0V35.6c0-1.17-.94-2.11-2.11-2.11h0-3.87c-1.17 0-2.11.94-2.11 2.11h0v11.57m20.56 0V24.25c0-1.17-.95-2.12-2.12-2.12h-3.86c-1.17.01-2.11.95-2.11 2.12v22.92m-28.9 1H51.8" fill="none" stroke="#27b7d8" stroke-width="2" stroke-linecap="round" stroke-miterlimit="10"/><path d="M16.11 33.22h4.28c.82 0 1.48-.65 1.5-1.47l.1-3.5c.03-.94.8-1.68 1.74-1.67h7.52c1.02.01 1.85-.82 1.86-1.84V12.53l3.07 4.14M33.11 12.53l-3.2 4.17" fill="none" stroke="#27b7d8" stroke-width="2" stroke-linecap="round" stroke-linejoin="round"/></symbol><symbol id="feature-6" viewBox="0 0 64 64"><path id="_Rectangle_" d="M11 1h42c5.52 0 10 4.48 10 10v42c0 5.52-4.48 10-10 10H11C5.48 63 1 58.52 1 53V11C1 5.48 5.48 1 11 1z" opacity=".5" fill="none" stroke="#cfdde1" stroke-width="2" stroke-miterlimit="10"/><path d="M30.93 30.88h7a2.35 2.35 0 0 0 2.35-2.33c0-.52-.17-1.03-.5-1.45a4.475 4.475 0 0 0-3.7-1.79c-5.62 0-5.15 5.57-5.15 5.57z" fill="none" stroke="#27b7d8" stroke-width="2" stroke-linecap="round" stroke-miterlimit="10"/><path d="M40.26 36.66s-3.54 1.43-6.51-.56a6.304 6.304 0 0 1-2.82-5.22M22.5 26.67l-13.18-.01M22.5 36.57l-4.5-.01M24.14 31.62l-9.06-.01" fill="none" stroke="#27b7d8" stroke-width="2" stroke-linecap="round" stroke-miterlimit="10"/><path d="M51.41 34v12.7c.17 1.28-.72 2.46-2 2.63-.22.03-.44.03-.66 0h-27c-1.47 0-2.26-.85-2.26-2.88v-4.13M19.46 21.57v-5.2c0-2 1.19-2.25 2.65-2.25h26.77c2.28 0 2.53 1.64 2.53 3.66V28.1M11.77 31.61h0" fill="none" stroke="#27b7d8" stroke-width="2" stroke-linecap="round" stroke-miterlimit="10"/></symbol><symbol id="feature-7" viewBox="0 0 64.28 64.28"><path fill="none" stroke="#27b7d8" stroke-width="2" stroke-linecap="round" stroke-miterlimit="10" d="M39.58 27.16H24.7M36.02 32.89h-7.76"/><path id="_Rectangle_" d="M10.93 1.28l42-.29C58.45.95 62.96 5.4 63 10.92l.29 42c.04 5.52-4.41 10.03-9.93 10.07l-42 .29c-5.52.04-10.03-4.41-10.07-9.93l-.29-42C.96 5.83 5.4 1.32 10.93 1.28z" opacity=".5" fill="none" stroke="#cfdde1" stroke-width="2" stroke-miterlimit="10"/><path d="M50.23 31.75l-18.11 18-18.06-18.03c-4.2-3.99-4.38-10.63-.39-14.83s10.63-4.38 14.83-.39l.39.39 2.29 2.29c.54.53 1.4.53 1.94 0l2.27-2.27c4.1-4.1 10.74-4.1 14.84 0s4.1 10.74 0 14.84z" fill="none" stroke="#27b7d8" stroke-width="2" stroke-linecap="round" stroke-linejoin="round"/></symbol><symbol id="feature-8" viewBox="0 0 62 61.55"><path id="_Path_" d="M48.72 45.52V33.85c.01-.81-.31-1.59-.89-2.16l-6.08-6.16a3 3 0 0 0-4.24-.07c-.02.02-.05.04-.07.07l-6.08 6.16c-.57.58-.89 1.35-.89 2.16v11.67a2.997 2.997 0 0 0 2.94 3.06H45.68c1.66.02 3.02-1.3 3.04-2.96v-.1z" fill="none" stroke="#27b7d8" stroke-width="2" stroke-linecap="round" stroke-miterlimit="10"/><ellipse id="_Path_2" cx="39.6" cy="33.05" rx="2.61" ry="2.59" fill="none" stroke="#27b7d8" stroke-width="2" stroke-linecap="round" stroke-miterlimit="10"/><path id="_Rectangle_" d="M11 1h40c5.52 0 10 4.48 10 10v39.55c0 5.52-4.48 10-10 10H11c-5.52 0-10-4.48-10-10V11C1 5.48 5.48 1 11 1z" opacity=".5" fill="none" stroke="#cfdde1" stroke-width="2" stroke-miterlimit="10"/><path d="M17.72 22.33a3.54 3.54 0 0 0 2.82-3.5V16c0-.39-.31-.7-.7-.7h0-5.68c-.39-.01-.7.3-.71.69V18.84a3.74 3.74 0 0 0 2.86 3.47c.46.13.95.13 1.41.02zM18.6 15.29v-2.3M15.5 15.27v-2.28" fill="none" stroke="#27b7d8" stroke-width="2" stroke-linecap="round" stroke-linejoin="round"/><path d="M24.66 19.21v26a4.14 4.14 0 0 1-4.15 4.12h0a3.444 3.444 0 0 1-3.46-3.44v-.03L17.21 30v-7.62M37.11 13.94a7.108 7.108 0 0 0-4.6-1.68h0c-1.56 0-3.07.51-4.3 1.46M40.21 24.62v-5.35" fill="none" stroke="#27b7d8" stroke-width="2" stroke-linecap="round" stroke-linejoin="round"/></symbol><symbol id="feature-9" viewBox="0 0 64 64"><path id="_Rectangle_" d="M11 1h42c5.52 0 10 4.48 10 10v42c0 5.52-4.48 10-10 10H11C5.48 63 1 58.52 1 53V11C1 5.48 5.48 1 11 1z" opacity=".5" fill="none" stroke="#cfdde1" stroke-width="2" stroke-miterlimit="10"/><path d="M15.48 19.8l14.85-7.32c.46-.23 1-.23 1.46 0L48 20.36l-17 8.53-15.51-7.55c-.43-.2-.61-.7-.42-1.13.09-.18.23-.32.41-.41zM47.95 30.55V20.36M30.93 28.89v21.19l7.82-4.17" fill="none" stroke="#27b7d8" stroke-width="2" stroke-linecap="round" stroke-linejoin="round"/><path d="M15 20.6v19.6c0 .55.3 1.05.78 1.31l15.15 8.57M27.15 17.9l12.77 6.48v4.51" fill="none" stroke="#27b7d8" stroke-width="2" stroke-linecap="round" stroke-linejoin="round"/><path id="_Path_" fill="none" stroke="#27b7d8" stroke-width="2" stroke-linecap="round" stroke-linejoin="round" d="M44.61 36.91l-2.94-.27-.13-2.93"/><path id="_Path_2" fill="none" stroke="#27b7d8" stroke-width="2" stroke-linecap="round" stroke-linejoin="round" d="M47.88 42.71l2.93.27.14 2.93"/><path id="_Path_3" d="M41.63 36.67a5.569 5.569 0 0 1 7.75-1.46c1.22.83 2.06 2.11 2.34 3.56" fill="none" stroke="#27b7d8" stroke-width="2" stroke-linecap="round" stroke-linejoin="round"/><path id="_Path_4" d="M50.83 43c-1.75 2.53-5.23 3.17-7.76 1.41a5.628 5.628 0 0 1-2.31-3.54" fill="none" stroke="#27b7d8" stroke-width="2" stroke-linecap="round" stroke-linejoin="round"/></symbol><symbol id="feature-checked" viewBox="0 0 64 64"><path id="_Rectangle_" d="M11 1h42c5.5 0 10 4.5 10 10v42c0 5.5-4.5 10-10 10H11C5.5 63 1 58.5 1 53V11C1 5.5 5.5 1 11 1z" opacity=".5" fill="none" stroke="#cfdde1" stroke-width="2" stroke-miterlimit="10"/><circle id="XMLID_2_" cx="32" cy="32" r="18" fill="none" stroke="#27b7d8" stroke-width="2" stroke-linecap="round" stroke-miterlimit="10"/><path d="M30.1 38.1c-.4 0-.9-.2-1.2-.5L24 32.7c-.6-.6-.6-1.7 0-2.3s1.7-.6 2.3 0l3.6 3.6 7.7-7.7c.6-.6 1.7-.6 2.3 0s.6 1.7 0 2.3l-8.9 9c-.2.4-.6.5-.9.5z" fill="none" stroke="#27b7d8" stroke-width="2" stroke-linecap="round" stroke-miterlimit="10"/></symbol><symbol id="feature-globe" viewBox="0 0 64 64"><path d="M11 1h42c5.5 0 10 4.5 10 10v42c0 5.5-4.5 10-10 10H11C5.5 63 1 58.5 1 53V11C1 5.5 5.5 1 11 1z" opacity=".5" fill="none" stroke="#cfdde1" stroke-width="2" stroke-miterlimit="10"/><g fill="none" stroke="#27b7d8" stroke-width="2" stroke-linecap="round" stroke-miterlimit="10"><circle cx="32" cy="32" r="18"/><path d="M18.5 20.2s2.8-.5 3 .7-1.5 3.9-2.1 5.2-1.9 4.1 1.3 4.6c3.3.5 5.6 1.6 6.7 3.4 1 1.8.2 3 1.3 3.8 1.1.7 3 1.5 3.3 2.9.2 1.6-.2 7.4 1.2 8.8"/><path d="M39.5 16s-2.7.7-2.1 2.4c.6 1.7 3.3 3.5 2.3 5.8-1.1 2.7-3.9 1.8-5.5 1.6-1.5-.2-3.4.4-4.4 1.7-1.6 2.3-3-1.9-5.2-.5-2.3 1.7.1 4.3.9 5.3m1.3.9s3.2.6 5-1c1.5-1.3 3.5-1.8 4.1 0 .9 2.8 3 3.2 4 3.3.9.1 2.7 1.5 1.8 4-.7 2.2-4.7 2.6-5.7 5.6-.4 1.3-.2 4.5-.2 4.5"/></g></symbol><symbol id="verified-1" viewBox="0 0 64 64"><path id="_Rectangle_" d="M10 0h42c5.5 0 10 4.5 10 10v42c0 5.5-4.5 10-10 10H10C4.5 62 0 57.5 0 52V10C0 4.5 4.5 0 10 0z" fill="#27b7d8"/><path d="M50.5 20c.2.4 0 .9-.4 1.1l-15.5 7.5-17-8.5 16.2-7.9c.5-.2 1-.2 1.5 0l14.8 7.3c.2.2.3.3.4.5zM17.6 20.2v10.2M26.8 45.7l7.8 4.2V28.7" fill="none" stroke="#fff" stroke-width="2" stroke-linecap="round" stroke-linejoin="round"/><path d="M34.6 49.9l15.2-8.6c.5-.3.8-.8.8-1.3V20.4M25.6 28.7v-4.5l12.8-6.5" fill="none" stroke="#fff" stroke-width="2" stroke-linecap="round" stroke-linejoin="round"/><path fill="none" stroke="#fff" stroke-width="2" stroke-linecap="round" stroke-miterlimit="10" d="M22.6 34.2H9.4M22.6 44.1h-4.5M24.2 39.2h-9M11.9 39.2h0"/></symbol><symbol id="verified-2" viewBox="0 0 64 64"><path id="_Rectangle_" d="M10 0h42c5.5 0 10 4.5 10 10v42c0 5.5-4.5 10-10 10H10C4.5 62 0 57.5 0 52V10C0 4.5 4.5 0 10 0z" fill="#27b7d8"/><g fill="none" stroke="#fff" stroke-width="2" stroke-linecap="round"><path d="M22.7 46.8v-5c0-1.1-.9-2-2.1-2.1h-3.9c-1.2 0-2.1.9-2.1 2.1h0v5m20.6 0V35.2c0-1.2-.9-2.1-2.1-2.1h0-3.9c-1.2 0-2.1.9-2.1 2.1h0v11.6m20.5 0v-23c0-1.2-1-2.1-2.1-2.1h-3.9c-1.2 0-2.1 1-2.1 2.1v22.9m-28.9 1.1h40.8" stroke-miterlimit="10"/><path d="M15.7 32.8H20c.8 0 1.5-.7 1.5-1.5l.1-3.5c0-.9.8-1.7 1.7-1.7h7.5c1 0 1.9-.8 1.9-1.8h0V12.1l3.1 4.1M32.7 12.1l-3.2 4.3" stroke-linejoin="round"/></g></symbol><symbol id="verified-3" viewBox="0 0 64 64"><path id="_Rectangle_" d="M10 0h42c5.5 0 10 4.5 10 10v42c0 5.5-4.5 10-10 10H10C4.5 62 0 57.5 0 52V10C0 4.5 4.5 0 10 0z" fill="#27b7d8"/><circle id="_Path_" cx="31" cy="32.3" r="2.8" fill="none" stroke="#fff" stroke-width="2" stroke-linecap="round" stroke-miterlimit="10"/><circle id="_Path_2" cx="31" cy="32.3" r="16.8" fill="none" stroke="#fff" stroke-width="2" stroke-linecap="round" stroke-miterlimit="10"/><path id="_Path_3" fill="none" stroke="#fff" stroke-width="2" stroke-linecap="round" stroke-miterlimit="10" d="M31 15.5v-3.7"/><path id="_Path_4" fill="none" stroke="#fff" stroke-width="2" stroke-linecap="round" stroke-miterlimit="10" d="M31 15.5v2.8"/><path id="_Path_5" fill="none" stroke="#fff" stroke-width="2" stroke-linecap="round" stroke-miterlimit="10" d="M31 47.3v3.8"/><path id="_Path_6" fill="none" stroke="#fff" stroke-width="2" stroke-linecap="round" stroke-miterlimit="10" d="M49 33.4h-3"/><path id="_Path_7" fill="none" stroke="#fff" stroke-width="2" stroke-linecap="round" stroke-miterlimit="10" d="M16 33.4h-3"/><path id="_Path_8" fill="none" stroke="#fff" stroke-width="2" stroke-linecap="round" stroke-miterlimit="10" d="M31 29.5V23"/><path id="_Path_9" fill="none" stroke="#fff" stroke-width="2" stroke-linecap="round" stroke-miterlimit="10" d="M33.8 32.3h3.7"/></symbol><symbol id="verified-4" viewBox="0 0 64 64"><path id="_Rectangle_" d="M10 0h42c5.5 0 10 4.5 10 10v42c0 5.5-4.5 10-10 10H10C4.5 62 0 57.5 0 52V10C0 4.5 4.5 0 10 0z" fill="#27b7d8"/><circle id="XMLID_680_" cx="31" cy="31" r="18" fill="none" stroke="#fff" stroke-width="2" stroke-linecap="round" stroke-miterlimit="10"/><path d="M29 37.1c-.4 0-.9-.2-1.2-.5L23 31.8c-.6-.6-.6-1.7 0-2.3.6-.6 1.7-.6 2.3 0l3.6 3.6 7.7-7.7c.6-.6 1.7-.6 2.3 0 .6.6.6 1.7 0 2.3L30 36.6c-.2.3-.6.5-1 .5z" fill="none" stroke="#fff" stroke-width="2" stroke-linecap="round" stroke-miterlimit="10"/></symbol><symbol id="ob-verified" viewBox="0 0 164.1 30.9"><path d="M48.1 26.4L38.8 2.2h5.9l6.7 18.6 6.7-18.6H64l-9.3 24.2h-6.6zM62.7 17.7c0-5.1 3.8-9.2 9.1-9.2s8.8 3.9 8.8 9.6v1.1h-13c.3 2.1 2.1 3.9 5.1 3.9 1.5 0 3.5-.6 4.7-1.7l2.1 3.1c-1.7 1.6-4.5 2.4-7.2 2.4-5.5 0-9.6-3.6-9.6-9.2zm9.1-5.5c-2.9 0-4.1 2-4.3 3.7h8.6c-.1-1.6-1.2-3.7-4.3-3.7zM83.9 26.4V8.9h4.6v2.4c1.3-1.5 3.4-2.8 5.6-2.8V13c-.3-.1-.7-.1-1.3-.1-1.5 0-3.6.9-4.3 2v11.6h-4.6zM96.6 4.2c0-1.5 1.2-2.7 2.7-2.7 1.5 0 2.8 1.2 2.8 2.7S100.8 7 99.3 7c-1.5 0-2.7-1.2-2.7-2.8zm.4 22.2V8.9h4.6v17.6H97zM107.3 26.4V12.9h-2.9v-4h2.9v-.7c0-4.1 2.5-6.3 5.9-6.3 1.3 0 2.5.3 3.3.7l-1 3.4c-.4-.3-.9-.4-1.5-.4-1.3 0-2.2.8-2.2 2.5v.7h3.6v4h-3.6v13.5h-4.5zm10.4-22.2c0-1.5 1.2-2.7 2.7-2.7 1.5 0 2.8 1.2 2.8 2.7S121.9 7 120.4 7c-1.5 0-2.7-1.2-2.7-2.8zm.4 22.2V8.9h4.6v17.6h-4.6zM126.1 17.7c0-5.1 3.8-9.2 9.1-9.2s8.8 3.9 8.8 9.6v1.1h-13c.3 2.1 2.1 3.9 5 3.9 1.5 0 3.5-.6 4.7-1.7l2.1 3.1c-1.7 1.6-4.5 2.4-7.2 2.4-5.4 0-9.5-3.6-9.5-9.2zm9.1-5.5c-2.9 0-4.1 2-4.3 3.7h8.6c-.1-1.6-1.2-3.7-4.3-3.7zM159.4 26.4v-2.3c-1.4 1.7-3.3 2.7-5.4 2.7-4.4 0-7.8-3.3-7.8-9.2 0-5.7 3.3-9.2 7.8-9.2 2.1 0 4 .9 5.4 2.7V2.2h4.7v24.2h-4.7zm0-5.6v-6.2c-.8-1.2-2.4-2-4-2-2.7 0-4.5 2.1-4.5 5.1 0 3.1 1.8 5.1 4.5 5.1 1.6 0 3.3-.9 4-2z" fill="#21b6d5"/><path d="M25.1 12.6L13.6 24.1l-3.8-3.8L6 16.5c-1.1-1.1-1.1-2.8 0-3.8 1.1-1.1 2.8-1.1 3.8 0l3.8 3.8 7.7-7.7c1.1-1.1 2.8-1.1 3.8 0 1 1 1 2.7 0 3.8M2.5 2.5c-3.3 8.3-3.3 17.6 0 25.9 8.3 3.3 17.6 3.3 25.9 0 3.3-8.3 3.3-17.6 0-25.9-8.3-3.3-17.6-3.3-25.9 0" fill-rule="evenodd" clip-rule="evenodd" fill="#fdae00"/></symbol></defs></svg>