<?xml version="1.0" encoding="utf-8"?>
<svg version="1.1" id="Layer_1" xmlns="http://www.w3.org/2000/svg" xmlns:xlink="http://www.w3.org/1999/xlink" x="0px" y="0px"
	 viewBox="0 0 257.5 64" style="enable-background:new 0 0 257.5 64;" xml:space="preserve">
<style type="text/css">
	.st0{fill:#EF3C37;}
</style>
<path class="st0" d="M48.5,52c0,0,10.6-1,17.2-5.6c6.6-4.6,8-9.9,8-11.6c0-1.8-1-5.9-4.3-9.3s-6.6-4.7-9.4-6c0,0-4-8.4-13.1-14.6
	c-9.3-6-24.6-5.7-25.1-5.7s-1.2,0-0.3,0.3c0.7,0.3,4.4,2.1,7.1,3.2C31.2,4,33,4.7,33.5,5c0.4,0.3,0.6,0.4,0,0.3
	c-0.6-0.1-8.7-1.6-14.6-1.6C13,3.8,9.7,3.8,5.9,4.4c-3.4,0.6-5,0.9-5.3,1C0.1,5.8,0,5.9,0,5.9C0,6,0.1,6,0.4,6.2s7.1,2.1,13.1,4.9
	s8.1,4.7,8.1,4.7s12.4-0.3,20.6,2.7c8.1,2.9,12.5,9,12.7,14.3c0.3,5.3-4.1,9.4-6.6,11.4c-2.5,1.9-7.4,4.1-10.2,4.9
	c-2.8,0.7-4.3,1-4.3,1l-5.3,13.1h12.2c2.4,0,3.5-1.3,4.1-2.8C45.7,58.7,48.5,52,48.5,52"/>
<path class="st0" d="M42,33.6c4-8.1-12.2-6.8-12.2-6.8l-5,12.1C24.8,38.9,39.1,39.5,42,33.6"/>
<path class="st0" d="M110.3,30.2h-6.3V17.5h6.3c4.3,0,7.1,2.1,7.1,6.2C117.3,28,114.5,30.2,110.3,30.2 M111.1,10.2H96v43.3h3.7
	c0,0,4.3,0,4.3-4.3V37.4h7.2c9.7,0,14.6-5.9,14.6-13.9C125.7,16.1,120.9,10.2,111.1,10.2"/>
<path class="st0" d="M137.4,31.1L137.4,31.1l-0.1-6h-7.5v28.6h3.4c0,0,4.3,0,4.3-4.3v-7.5c0-7.1,2.9-9.6,9-9.6h0.9V24H147
	C142.2,24.2,138.9,26.5,137.4,31.1"/>
<path class="st0" d="M157,36c0.6-4,3.2-5.7,6.9-5.7c3.7,0,6.3,2.1,6.6,5.7H157z M164.4,24c-9,0-14.9,6.2-14.9,15.3
	c0,9.1,6,15.2,15.5,15.2c6,0,9.9-2.8,12.4-5.2l-3.8-5.5c-1.6,1.6-4.4,4-8.5,4c-4.4,0-7.7-2.5-8.1-6.9h21.4v-1.5
	C178.2,29.6,173.1,24,164.4,24"/>
<path class="st0" d="M198.3,37l-5.2-2.2c-1.9-0.9-2.8-1.5-2.8-2.7c0-1,0.7-1.8,2.9-1.8c2.7,0,5.5,0.9,8.1,1.9l2.5-6.3
	c-3.4-1.2-6.9-1.9-10.2-1.9c-7.2,0-11.1,3.1-11.1,8.7c0,3.7,1.9,6.6,6.5,8.5l5.2,2.2c1.6,0.7,2.5,1.3,2.5,2.5c0,1.5-1.2,2.1-3.5,2.1
	c-3.5,0-6.8-1.3-9.6-2.9l-3.1,6.5c3.8,2.1,8.3,3.1,12.2,3.1c7.1,0,11.8-2.8,11.8-9.1C204.6,41.1,202.2,38.6,198.3,37"/>
<path class="st0" d="M223,27.1v-2.2h-5.9V13.4h-7.7v11.5v6.3v13.9c0,5.7,3.2,8.5,8.5,8.5h3.7v-7.1h-1.6c-2.2,0-3.1-0.9-3.1-3.2V31.3
	h1.6C218.7,31.4,223,31.4,223,27.1"/>
<path class="st0" d="M241.6,47.3c-4.7,0-8.1-3.1-8.1-8.1c0-4.9,3.4-8.1,8.1-8.1s8,3.1,8,8.1S246.3,47.3,241.6,47.3 M241.6,24
	c-9.1,0-15.9,6.2-15.9,15.2c0,9,6.8,15.2,15.9,15.2s15.9-6.2,15.9-15.2C257.5,30.4,250.7,24,241.6,24"/>
</svg>
