<?xml version="1.0" encoding="utf-8"?>
<!-- Generator: Adobe Illustrator 24.0.3, SVG Export Plug-In . SVG Version: 6.00 Build 0)  -->
<svg version="1.1" id="图层_1" xmlns="http://www.w3.org/2000/svg" xmlns:xlink="http://www.w3.org/1999/xlink" x="0px" y="0px"
	 viewBox="0 0 850.4 850.4" style="enable-background:new 0 0 850.4 850.4;" xml:space="preserve">
<style type="text/css">
	.st0{clip-path:url(#SVGID_2_);fill:#fff;}
	.st1{clip-path:url(#SVGID_4_);fill:#fff;}
	.st2{clip-path:url(#SVGID_6_);fill:#fff;}
	.st3{fill:#5B5C65;}
</style>
<path class="st3" d="M742.5,268.2C742.5,125.4,626.8,9.7,484,9.7h-57.4c-83.8-0.1-164.2,33.2-223.5,92.5
	c-59.3,59.3-92.5,139.7-92.5,223.5v57.4c0,15.9,12.9,28.7,28.7,28.7h229.8c15.9,0,28.7-12.9,28.7-28.7v-28.7c0-26.2,17.7-49,43-55.6
	l-98.4,246c-3.5,8.8-2.5,18.9,2.9,26.8c5.3,7.9,14.3,12.6,23.8,12.6h229.8c11.7,0,22.3-7.2,26.7-18.1l114.9-287.2
	C741.8,275.5,742.5,271.8,742.5,268.2L742.5,268.2z M168,325.6c0-85.7,42-161.8,106.4-208.9c-32,44-49.1,97-48.9,151.4v86.2H168
	V325.6z M340.4,296.9v57.4h-57.4v-86.2c0-110.9,90.2-201.1,201.1-201.1c54,0,105.7,21.7,143.4,60.3c-9.4-1.9-18.9-2.8-28.5-2.8
	h-86.2C417.7,124.6,340.4,201.9,340.4,296.9L340.4,296.9z M503.4,296.9h53l-91.9,229.8h-53L503.4,296.9z M579.4,526.7h-53
	l99.1-247.9c3.5-8.8,2.5-18.9-2.9-26.8c-5.3-7.9-14.3-12.6-23.8-12.6H455.3c-16.3,0-32.4,3.5-47.3,10.2
	c18.6-41.1,59.6-67.6,104.7-67.6h86.2c45.6,0.1,83.2,35.5,86,81L579.4,526.7z M598.9,641.6H369.1c-15.9,0-28.7,12.9-28.7,28.7v114.9
	c0,15.9,12.9,28.7,28.7,28.7h229.8c15.9,0,28.7-12.9,28.7-28.7V670.3C627.6,654.5,614.8,641.6,598.9,641.6L598.9,641.6z
	 M570.2,756.5H397.8v-57.5h172.4V756.5z M570.2,756.5"/>
</svg>
