<?xml version="1.0" encoding="utf-8"?>
<!-- Generator: Adobe Illustrator 24.0.3, SVG Export Plug-In . SVG Version: 6.00 Build 0)  -->
<svg version="1.1" id="图层_1" xmlns="http://www.w3.org/2000/svg" xmlns:xlink="http://www.w3.org/1999/xlink" x="0px" y="0px"
	 viewBox="0 0 850.4 850.4" style="enable-background:new 0 0 850.4 850.4;" xml:space="preserve">
<style type="text/css">
	.st0{clip-path:url(#SVGID_2_);fill:#fff;}
	.st1{clip-path:url(#SVGID_4_);fill:#fff;}
	.st2{clip-path:url(#SVGID_6_);fill:#fff;}
</style>
<g>
	<g>
		<defs>
			<rect id="SVGID_1_" x="3.8" y="32.1" width="841.7" height="788"/>
		</defs>
		<clipPath id="SVGID_2_">
			<use xlink:href="#SVGID_1_"  style="overflow:visible;"/>
		</clipPath>
		<path class="st0" d="M417.7,165.3c-90,0-163.3,73.3-163.3,163.3c0,90.1,73.3,163.3,163.3,163.3S581,418.6,581,328.6
			C581,238.6,507.7,165.3,417.7,165.3L417.7,165.3z M417.7,433.2c-57.7,0-104.6-46.9-104.6-104.6c0-57.7,46.9-104.6,104.6-104.6
			c57.7,0,104.6,46.9,104.6,104.6C522.3,386.3,475.4,433.2,417.7,433.2L417.7,433.2z M417.7,433.2"/>
		<path class="st0" d="M841.8,657.6L706.6,391.9c4.5-20.4,7-41.6,7-63.3c0-163.1-132.7-295.8-295.8-295.8S121.9,165.5,121.9,328.6
			c0,32.3,5.4,63.2,15,92.3L7,666.6c-5,9.5-4.5,20.9,1.5,29.9c5.9,8.9,16.3,13.9,26.9,13.1l116.9-9.7l58.8,104.3
			c5.2,9.2,15,14.9,25.6,14.9h0c10.6,0,20.4-5.8,25.6-15l103.4-184.5c16.9,3,34.3,4.9,52,4.9c25.4,0,50-3.6,73.5-9.6L590,794.4
			c5,9.1,14.5,14.9,24.9,15.2c0.3,0,0.6,0,0.8,0c10.1,0,19.5-5.2,24.9-13.8l59.8-95.6h115.2c10.2,0,19.7-5.3,25-14
			C846,677.5,846.4,666.7,841.8,657.6L841.8,657.6z M236.6,729.8l-42.4-75.2c-5.6-10-16.7-15.7-28-14.8L84,646.6L168.3,487
			c33.1,51.9,81.7,92.8,139.4,116L236.6,729.8z M180.6,328.6c0-130.7,106.4-237.1,237.2-237.1c130.8,0,237.2,106.4,237.2,237.1
			c0,130.8-106.4,237.2-237.2,237.2C286.9,565.8,180.6,459.4,180.6,328.6L180.6,328.6z M684.2,641.6c-10.1,0-19.5,5.2-24.9,13.8
			l-42,67l-70.4-128.1c56.3-27.5,102.7-72.1,132-127.2l88.8,174.5L684.2,641.6L684.2,641.6z M684.2,641.6"/>
	</g>
</g>
</svg>
