<?xml version="1.0" encoding="utf-8"?>
<!-- Generator: Adobe Illustrator 24.0.3, SVG Export Plug-In . SVG Version: 6.00 Build 0)  -->
<svg version="1.1" id="图层_1" xmlns="http://www.w3.org/2000/svg" xmlns:xlink="http://www.w3.org/1999/xlink" x="0px" y="0px"
	 viewBox="0 0 850.4 850.4" style="enable-background:new 0 0 850.4 850.4;" xml:space="preserve">
<style type="text/css">
	.st0{clip-path:url(#SVGID_2_);fill:#fff;}
	.st1{clip-path:url(#SVGID_4_);fill:#fff;}
	.st2{clip-path:url(#SVGID_6_);fill:#fff;}
</style>
<g>
	<g>
		<defs>
			<rect id="SVGID_3_" x="6" y="67.3" width="835.1" height="733.9"/>
		</defs>
		<clipPath id="SVGID_2_">
			<use xlink:href="#SVGID_3_"  style="overflow:visible;"/>
		</clipPath>
		<path class="st0" d="M778.7,142.6c-44.1-47.1-105.5-74.3-170-75.1c-64.5-1.2-126.7,24.1-172.2,69.8l-11.7,12l-12-12
			c-93-93-244-93-337,0c-93,93-93,244,0,337l309.6,309.6c10.9,10.9,25.1,16.2,39.4,16.2c14.2,0,28.5-5.3,39.4-16.2l303.2-303.2
			C861,387.2,866,235.6,778.7,142.6L778.7,142.6z M727.9,441.1L424.7,744.5L115.1,434.9c-71.2-71.2-71.2-186.7,0-257.9
			c71.2-71.2,187-71.2,257.9,0l12,12l-38.5,38.8c-10.9,10.9-10.9,28.5,0,39.4c10.9,10.9,28.5,10.9,39.4,0l58.6-58.6l31.8-31.8
			c34.1-34.4,80.6-53.6,129-53.3h2.8c49.7,0.8,96,21.2,130.1,57.5C804.9,252.1,800.4,368.8,727.9,441.1L727.9,441.1z M734.3,265.5
			c4.5,14.8-3.9,30.4-18.7,34.9c-14.8,4.4-30.4-3.9-34.9-18.7c-3.6-12-10-23-18.7-32.1c-12.8-13.7-29.3-22.6-47.7-26
			c-15.2-2.7-25.3-17.2-22.6-32.4c2.7-15.2,17.2-25.3,32.4-22.6c30.1,5.3,57.5,20.1,78.7,42.7C717.8,226.7,728.1,245.1,734.3,265.5
			L734.3,265.5z M734.3,265.5"/>
	</g>
</g>
</svg>
